<?xml version="1.0" encoding="UTF-8"?>
<svg xmlns="http://www.w3.org/2000/svg" xmlns:xlink="http://www.w3.org/1999/xlink" width="24px" height="24px" viewBox="0 0 24 24" version="1.1">
<g id="surface1">
<path style="fill:none;stroke-width:3;stroke-linecap:butt;stroke-linejoin:miter;stroke:rgb(69.411765%,69.411765%,69.411765%);stroke-opacity:1;stroke-miterlimit:4;" d="M 42.001953 22 C 42.001953 33.042969 33.042969 42.001953 22 42.001953 C 10.957031 42.001953 1.998047 33.042969 1.998047 22 C 1.998047 10.957031 10.957031 1.998047 22 1.998047 C 33.042969 1.998047 42.001953 10.957031 42.001953 22 Z M 42.001953 22 " transform="matrix(0.545455,0,0,0.545455,0,0)"/>
<path style=" stroke:none;fill-rule:nonzero;fill:rgb(92.156863%,18.039216%,19.607843%);fill-opacity:1;" d="M 17.839844 12.386719 C 18.054688 12.171875 18.054688 11.828125 17.839844 11.613281 L 14.367188 8.144531 C 14.15625 7.929688 13.8125 7.929688 13.597656 8.144531 C 13.382812 8.355469 13.382812 8.703125 13.597656 8.914062 L 16.683594 12 L 13.597656 15.085938 C 13.382812 15.296875 13.382812 15.644531 13.597656 15.855469 C 13.8125 16.070312 14.15625 16.070312 14.367188 15.855469 Z M 6.546875 12.546875 L 17.453125 12.546875 L 17.453125 11.453125 L 6.546875 11.453125 Z M 6.546875 12.546875 "/>
</g>
</svg>
