<svg width="28" height="28" viewBox="0 0 28 28" fill="none" xmlns="http://www.w3.org/2000/svg">
<path d="M27.6786 13.9262C27.6786 11.4176 26.9859 9.07006 25.7832 7.05598L25.7919 7.06445L26.9783 5.89082C28.3406 4.54324 28.3406 2.3583 26.9783 1.01079C25.616 -0.33685 23.4074 -0.33685 22.0451 1.01079L20.838 2.20486L20.8483 2.21487C18.8338 1.0596 16.4962 0.395058 14.0002 0.395058C11.5038 0.395058 9.1657 1.0599 7.15109 2.21547L7.16199 2.2048L5.95486 1.01073C4.59263 -0.336909 2.38398 -0.336909 1.02168 1.01073C-0.340559 2.35824 -0.340559 4.54318 1.02168 5.89076L2.20808 7.0644L2.21784 7.05474C1.01485 9.06917 0.321934 11.4171 0.321934 13.9262C0.321934 17.8663 2.02554 21.4118 4.74235 23.8848L1.40754 27.184L2.2324 27.9999L5.63805 24.6308C7.95055 26.4012 10.8498 27.4575 14.0002 27.4575C17.1517 27.4575 20.052 26.4005 22.3649 24.6289L25.7724 28L26.5973 27.184L23.2604 23.8828C25.9759 21.4099 27.6786 17.8653 27.6786 13.9262ZM4.45632 14.5034H2.26887V13.3492H4.45632V14.5034ZM13.417 2.32104H14.5837V4.48495H13.417V2.32104ZM14.5837 25.5313H13.417V23.3674H14.5837V25.5313ZM19.9305 14.5034H13.417V6.36039H14.5837V13.3493H19.9305V14.5034ZM23.5439 13.3493H25.7313V14.5034H23.5439V13.3493Z" fill="black" fill-opacity="0.5"/>
</svg>
