<svg xmlns="http://www.w3.org/2000/svg" width="231" height="29" viewBox="0 0 231 29"><defs><clipPath id="i"><path d="M209.08 3.68v19.175h2.444v-6.1h.91a67.831 67.831 0 012.69 2.934c.876 1.013 1.79 2.068 2.743 3.166h3.042a367.675 367.675 0 00-3.25-3.63 311.573 311.573 0 00-3.275-3.551 138.24 138.24 0 002.99-2.947 202.94 202.94 0 002.963-3.076h-2.86a598.8 598.8 0 01-2.418 2.587 81.025 81.025 0 01-2.573 2.612h-.962V3.68z"/></clipPath><clipPath id="a"><path d="M105.549 4.713c-1.014.43-1.794 1.039-2.34 1.828-.546.79-.819 1.733-.819 2.831 0 .858.156 1.574.468 2.15a4.031 4.031 0 001.3 1.428c.554.377 1.191.69 1.91.94.72.248 1.487.475 2.302.681.554.138 1.087.283 1.599.438.51.154.966.347 1.364.579.399.231.72.536.962.914.243.377.364.849.364 1.415 0 .995-.39 1.776-1.17 2.342-.78.566-1.88.85-3.301.85a11.1 11.1 0 01-3.03-.4 10.228 10.228 0 01-2.716-1.222v2.394c.797.446 1.69.785 2.678 1.016a12.83 12.83 0 002.938.348c1.49 0 2.777-.223 3.86-.67 1.083-.445 1.911-1.08 2.483-1.904.572-.824.858-1.81.858-2.96 0-.737-.108-1.372-.325-1.904a3.949 3.949 0 00-.91-1.365 5.65 5.65 0 00-1.365-.965 10.879 10.879 0 00-1.677-.682 27.916 27.916 0 00-1.859-.515 34.876 34.876 0 01-1.702-.463 5.887 5.887 0 01-1.326-.566 2.451 2.451 0 01-.858-.824c-.2-.325-.3-.746-.3-1.26 0-.927.365-1.652 1.093-2.176.728-.523 1.75-.785 3.067-.785 1.092 0 2.084.129 2.977.386.893.258 1.651.601 2.275 1.03V5.28c-.693-.377-1.495-.674-2.405-.888a12.032 12.032 0 00-2.768-.322c-1.404 0-2.613.215-3.627.643z"/></clipPath><clipPath id="c"><path d="M128.58 18.882c-.312-.747-.468-1.635-.468-2.664 0-1.013.156-1.888.468-2.626.312-.737.762-1.303 1.352-1.698.589-.395 1.282-.592 2.08-.592.796 0 1.49.197 2.08.592.588.395 1.04.96 1.351 1.698.312.738.468 1.613.468 2.626 0 1.03-.156 1.917-.468 2.664-.312.746-.758 1.321-1.339 1.724-.58.403-1.278.605-2.093.605-.814 0-1.512-.202-2.092-.605-.581-.403-1.027-.978-1.34-1.724zm-2.197-6.32c-.529 1.03-.793 2.249-.793 3.656 0 1.064.151 2.025.455 2.882.303.859.736 1.592 1.3 2.201a5.672 5.672 0 002.028 1.403c.788.325 1.668.489 2.638.489s1.85-.164 2.64-.49a5.679 5.679 0 002.027-1.402c.563-.609.997-1.342 1.3-2.2.303-.858.455-1.82.455-2.883 0-1.407-.264-2.626-.793-3.655-.529-1.03-1.27-1.827-2.223-2.394-.953-.566-2.089-.849-3.406-.849-1.317 0-2.452.283-3.405.85-.954.566-1.695 1.363-2.223 2.393z"/></clipPath><clipPath id="d"><path d="M142.158 11.66l-.234-2.008h-2.054v13.203h2.444v-9.343c.953-1.287 2.132-1.93 3.535-1.93.365 0 .707.039 1.027.116.32.077.602.202.845.373V9.755c-.468-.223-1.057-.335-1.768-.335-1.525 0-2.79.746-3.795 2.24z"/></clipPath><clipPath id="e"><path d="M159.433 9.65a184.32 184.32 0 01-1.91 5.25c-.668 1.75-1.357 3.5-2.067 5.25a270.177 270.177 0 01-2.028-5.224 146.246 146.246 0 01-1.872-5.276h-2.626a185.907 185.907 0 002.535 6.447 440.604 440.604 0 002.743 6.473c-.191.464-.39.931-.598 1.403-.208.472-.425.93-.65 1.377-.295.6-.62 1.03-.975 1.287-.356.257-.81.386-1.365.386-.347 0-.663-.03-.949-.09a3.132 3.132 0 01-.741-.245v1.956c.312.138.632.232.962.284.329.051.693.077 1.092.077.918 0 1.72-.262 2.405-.785.684-.524 1.295-1.369 1.833-2.535a183.213 183.213 0 001.963-4.465l1.221-2.884a317.3 317.3 0 001.261-3.024c.416-1.012.82-1.998 1.21-2.96.389-.96.749-1.861 1.078-2.702z"/></clipPath><clipPath id="f"><path d="M183.07 4.45a237.983 237.983 0 01-1.806 7.747c-.65 2.591-1.322 5.13-2.015 7.619a498.164 498.164 0 01-2.08-7.284 379.98 379.98 0 01-1.95-7.31h-2.6c-1.248 4.89-2.6 9.806-4.055 14.748a298.254 298.254 0 01-2.015-7.683 291.302 291.302 0 01-1.833-7.837h-2.756a295.34 295.34 0 002.43 9.291 318.04 318.04 0 002.692 9.112h2.703A500.522 500.522 0 00173.841 8.8a928.539 928.539 0 002.002 7.039c.676 2.342 1.369 4.68 2.08 7.014h2.704a319.01 319.01 0 002.69-9.112 292.335 292.335 0 002.431-9.291z"/></clipPath><clipPath id="g"><path d="M187.84 18.882c-.312-.747-.468-1.635-.468-2.664 0-1.013.156-1.888.468-2.626.312-.737.762-1.303 1.352-1.698.589-.395 1.282-.592 2.08-.592.796 0 1.49.197 2.08.592.588.395 1.04.96 1.351 1.698.312.738.468 1.613.468 2.626 0 1.03-.156 1.917-.468 2.664-.312.746-.758 1.321-1.339 1.724-.58.403-1.278.605-2.093.605-.814 0-1.512-.202-2.092-.605-.581-.403-1.027-.978-1.34-1.724zm-2.197-6.32c-.529 1.03-.793 2.249-.793 3.656 0 1.064.151 2.025.455 2.882.303.859.736 1.592 1.3 2.201a5.67 5.67 0 002.028 1.403c.788.325 1.668.489 2.638.489s1.85-.164 2.64-.49a5.68 5.68 0 002.027-1.402c.563-.609.997-1.342 1.3-2.2.303-.858.455-1.82.455-2.883 0-1.407-.265-2.626-.793-3.655-.529-1.03-1.27-1.827-2.223-2.394-.953-.566-2.089-.849-3.406-.849-1.317 0-2.452.283-3.405.85-.954.566-1.695 1.363-2.223 2.393z"/></clipPath><clipPath id="h"><path d="M201.908 11.66l-.234-2.008h-2.054v13.203h2.444v-9.343c.953-1.287 2.132-1.93 3.535-1.93.364 0 .706.039 1.027.116.32.077.602.202.845.373V9.755c-.468-.223-1.057-.335-1.768-.335-1.525 0-2.79.746-3.795 2.24z"/></clipPath><clipPath id="b"><path d="M117.88 6.086v3.63h-2.6v1.904h2.6v7.567c0 1.321.342 2.33 1.027 3.024.684.695 1.685 1.042 3.002 1.042.503 0 .988-.051 1.456-.154.468-.103.91-.266 1.326-.489v-1.956c-.832.412-1.577.618-2.236.618-.728 0-1.265-.18-1.611-.54-.347-.361-.52-.902-.52-1.622v-7.49h4.03V9.715h-4.03V5.52z"/></clipPath><clipPath id="j"><path d="M223.668 9.796c-.78.318-1.378.768-1.794 1.351-.416.584-.624 1.279-.624 2.085 0 .687.139 1.274.416 1.763.277.49.745.91 1.404 1.261.658.352 1.56.665 2.704.94.762.189 1.343.369 1.742.54.398.172.676.373.832.605.156.232.233.545.233.94 0 .652-.26 1.15-.78 1.492-.52.344-1.265.515-2.235.515a7.719 7.719 0 01-2.301-.335 6.646 6.646 0 01-1.963-.978v2.162a8.483 8.483 0 001.989.785c.702.18 1.477.27 2.327.27 1.109 0 2.062-.163 2.86-.488.797-.326 1.416-.794 1.858-1.403.442-.609.663-1.334.663-2.175 0-.703-.147-1.3-.442-1.789-.295-.489-.771-.909-1.43-1.26-.658-.352-1.542-.666-2.651-.94-.763-.206-1.348-.39-1.755-.554-.408-.162-.69-.36-.845-.592-.156-.231-.234-.536-.234-.913 0-.6.26-1.06.78-1.377.52-.318 1.239-.476 2.158-.476.745 0 1.456.107 2.131.321a5.56 5.56 0 011.768.914v-2.136c-1.092-.67-2.443-1.004-4.055-1.004-1.058 0-1.976.159-2.756.476z"/></clipPath><clipPath id="k"><path d="M86.458 4.992v3.484l-.438-.237c-2.371-1.286-4.368-1.852-6.57-1.854-4.327.01-7.47 2.837-7.474 6.65.012 3.905 3.021 6.583 7.59 6.602 2.134 0 4.483-.7 6.645-2.006l.448-.269v3.545l-.166.081c-1.937.944-4.081 1.628-7.172 1.628h-.013c-3.73 0-6.445-1.344-8.211-3.189-1.768-1.845-2.596-4.167-2.596-6.151-.001-2.844 1.16-5.322 3.115-7.077 1.954-1.756 4.7-2.792 7.862-2.79 2.046-.002 4.119.466 6.794 1.51zM64.3 25.999h27.9V.01H64.3z"/></clipPath><clipPath id="l"><path d="M39.471 3.648h5.947c2.153-.001 3.733.604 4.772 1.531a4.5 4.5 0 011.52 3.39c.002.99-.251 1.84-.784 2.536-.397.518-.94.94-1.625 1.287 2.542.69 4.13 2.484 4.123 4.847.001 1.193-.483 2.489-1.61 3.475-1.124.99-2.873 1.656-5.363 1.656h-6.98zM32.15 26h27.903V.01H32.15z"/></clipPath><clipPath id="m"><path d="M42.85 14.33v5.11h3.22c1.598 0 2.562-.368 3.122-.855.558-.487.751-1.107.753-1.725-.005-.746-.293-1.339-.93-1.792-.637-.45-1.654-.738-3.09-.738z"/></clipPath><clipPath id="n"><path d="M42.85 6.57v4.842h1.563c1.351 0 2.321-.238 2.923-.667.6-.429.89-1.031.894-1.94-.003-.62-.184-1.155-.635-1.552-.454-.399-1.226-.683-2.467-.683z"/></clipPath><clipPath id="o"><path d="M7.311 3.648h5.955c2.155-.001 3.736.604 4.774 1.531a4.506 4.506 0 011.522 3.39c.001.99-.251 1.84-.785 2.536-.398.518-.94.94-1.628 1.287 2.543.69 4.136 2.484 4.127 4.847.003 1.193-.484 2.489-1.61 3.475-1.127.99-2.875 1.656-5.368 1.656H7.31zM0 26h27.895V.01H0z"/></clipPath><clipPath id="p"><path d="M10.7 6.57v4.842h1.562c1.35 0 2.32-.238 2.925-.667.596-.429.888-1.031.892-1.94 0-.62-.183-1.155-.636-1.552-.454-.399-1.224-.683-2.467-.683z"/></clipPath><clipPath id="q"><path d="M10.7 14.33v5.11h3.217c1.601 0 2.563-.368 3.124-.855.556-.487.749-1.107.753-1.725-.007-.746-.293-1.339-.93-1.792-.64-.45-1.655-.738-3.089-.738z"/></clipPath></defs><g clip-path="url(#a)"><path fill="#fff" d="M102.09 23.54h13.47V3.77h-13.47z"/></g><g clip-path="url(#b)"><path fill="#fff" d="M114.98 23.558h10.012V5.23H114.98z"/></g><g clip-path="url(#c)"><path fill="#fff" d="M125.29 23.487h13.443V9.02H125.29z"/></g><g clip-path="url(#d)"><path fill="#fff" d="M139.57 23.15h8.452V9.12h-8.452z"/></g><g clip-path="url(#e)"><path fill="#fff" d="M148.63 29.31h13.625V9.36H148.63z"/></g><g clip-path="url(#f)"><path fill="#fff" d="M161.66 23.157h24.389V4.16H161.66z"/></g><g clip-path="url(#g)"><path fill="#fff" d="M184.55 23.487h13.443V9.02H184.55z"/></g><g clip-path="url(#h)"><path fill="#fff" d="M199.32 23.15h8.452V9.12h-8.452z"/></g><g clip-path="url(#i)"><path fill="#fff" d="M208.78 23.15h12.43V3.38h-12.43z"/></g><g><g clip-path="url(#j)"><path fill="#fff" d="M220.95 23.487h10.35V9.02h-10.35z"/></g></g><g><g clip-path="url(#k)"><path fill="#fff" d="M64 26.29h28.501V-.3H64z"/></g></g><g><g clip-path="url(#l)"><path fill="#fff" d="M31.85 26.29h28.504V-.3H31.85z"/></g></g><g><g clip-path="url(#m)"><path fill="#fff" d="M42.55 19.745h7.695V14.04H42.55z"/></g></g><g><g clip-path="url(#n)"><path fill="#fff" d="M42.55 11.707h5.98V6.27h-5.98z"/></g></g><g><g clip-path="url(#o)"><path fill="#fff" d="M-.3 26.29h28.5V-.3H-.3z"/></g></g><g><g clip-path="url(#p)"><path fill="#fff" d="M10.4 11.707h5.98V6.27H10.4z"/></g></g><g><g clip-path="url(#q)"><path fill="#fff" d="M10.4 19.745h7.695V14.04H10.4z"/></g></g></svg>