<svg width="21" height="20" viewBox="0 0 21 20" fill="none" xmlns="http://www.w3.org/2000/svg">
<path d="M18.2928 15.684C17.805 15.2167 17.3301 14.736 16.8689 14.2424C16.4814 13.8486 16.248 13.5622 16.248 13.5622L13.3314 12.1695C14.4991 10.8451 15.1435 9.14029 15.1439 7.37467C15.1439 3.35488 11.873 0.0830078 7.85221 0.0830078C3.83138 0.0830078 0.560547 3.35488 0.560547 7.37467C0.560547 11.3945 3.83138 14.6663 7.85221 14.6663C9.68867 14.6663 11.3626 13.9788 12.647 12.8549L14.0397 15.7716C14.0397 15.7716 14.3262 16.0049 14.7199 16.3924C15.123 16.7705 15.6533 17.282 16.1616 17.8163L17.5762 19.2663L18.2053 19.9393L20.4147 17.7299L19.7418 17.1007C19.347 16.7132 18.8199 16.1986 18.2928 15.684ZM7.85221 12.583C4.98034 12.583 2.64388 10.2466 2.64388 7.37467C2.64388 4.5028 4.98034 2.16634 7.85221 2.16634C10.7241 2.16634 13.0605 4.5028 13.0605 7.37467C13.0605 10.2466 10.7241 12.583 7.85221 12.583Z" fill="white"/>
</svg>
