<svg width="19" height="20" viewBox="0 0 19 20" fill="none" xmlns="http://www.w3.org/2000/svg">
<path d="M18.1309 17.34V20H0V17.3394C0 16.0832 1.08293 14.5369 2.40586 13.9085L5.34965 12.5099L7.39316 16.7683L8.43944 13.9315C8.64574 13.9706 8.85027 14.0226 9.06544 14.0226C9.28061 14.0226 9.48454 13.9706 9.69143 13.9315L10.6845 16.6288L12.6878 12.4626L15.7268 13.9079C17.0479 14.5363 18.1309 16.0826 18.1309 17.34ZM2.67423 8.01679V6.09564C2.67423 5.76994 2.84388 5.48442 3.09984 5.32009C3.44328 2.3302 5.98629 0 9.06662 0C12.147 0 14.6905 2.3302 15.0346 5.32009C15.2899 5.48442 15.4596 5.76994 15.4596 6.09564V8.01679C15.4596 8.52693 15.0464 8.94071 14.5357 8.94071C14.0249 8.94071 13.6118 8.52693 13.6118 8.01679V7.61305C13.1117 10.1283 11.2703 12.4632 9.06721 12.4632C6.8641 12.4632 5.02276 10.1283 4.52267 7.61305V8.01679C4.52267 8.43057 4.2478 8.77697 3.87244 8.8946C4.24011 10.146 5.05586 11.2272 6.18254 11.9365C6.39061 11.8679 6.65307 11.8809 6.90784 12.0134C7.3169 12.2262 7.52557 12.6399 7.37069 12.9355C7.21641 13.2311 6.76006 13.2973 6.34864 13.0839C6.04835 12.9272 5.85801 12.6642 5.83791 12.4183C4.5475 11.5931 3.63244 10.3298 3.25471 8.87273C2.91541 8.73677 2.67423 8.40575 2.67423 8.01679ZM3.72938 5.10433C3.75717 5.10611 3.78377 5.1067 3.81037 5.11675C3.87717 5.14157 3.92564 5.18945 3.95933 5.24561C4.15972 5.33073 4.31932 5.4862 4.41745 5.6789C4.68996 3.12467 6.6643 1.77336 9.06544 1.77336C11.4666 1.77336 13.4409 3.12467 13.7134 5.6789C13.8488 5.41349 14.1059 5.22374 14.4139 5.18413C14.0143 2.58734 11.7716 0.59053 9.06544 0.59053C6.38707 0.591121 4.16209 2.54714 3.72938 5.10433Z" fill="white"/>
</svg>
