<svg width="56" height="55" viewBox="0 0 56 55" fill="none" xmlns="http://www.w3.org/2000/svg">
<g clip-path="url(#clip0_1115_4392)">
<path d="M9.34261 18.7289C9.29886 18.8457 9.24636 18.957 9.1862 19.0618L9.13589 19.052C7.74136 18.7736 6.44308 18.7409 5.24323 18.909C4.99276 18.385 4.94792 17.7638 5.16667 17.1765C7.10261 12.0172 10.5457 7.71928 14.889 4.71497C19.2257 1.71503 24.4571 0 29.9784 0C37.2934 0 43.9171 2.96064 48.711 7.74548C52.385 11.4124 54.9848 16.1514 55.9998 21.4515H51.4279C50.4818 17.3861 48.4059 13.7541 45.549 10.9026C41.5645 6.92563 36.0585 4.46498 29.9784 4.46498C25.3737 4.46498 21.0217 5.88853 17.4221 8.37756C13.8117 10.8753 10.9504 14.4462 9.34261 18.7289V18.7289ZM24.0842 16.2442H22.3528V21.7878H19.964V16.2442H18.2326V14.3371H24.0842V16.2442ZM24.6518 18.0684C24.6518 16.7093 24.9067 15.718 25.4164 15.0936C25.926 14.4702 26.8448 14.158 28.1748 14.158C29.5037 14.158 30.4235 14.4702 30.9332 15.0936C31.4429 15.718 31.6978 16.7093 31.6978 18.0684C31.6978 18.7442 31.6442 19.3118 31.537 19.7725C31.4287 20.2343 31.2439 20.635 30.9814 20.9767C30.7189 21.3184 30.3568 21.5694 29.8942 21.7277C29.4326 21.8871 28.8595 21.9657 28.1748 21.9657C27.4901 21.9657 26.917 21.8871 26.4554 21.7277C25.9939 21.5694 25.6307 21.3184 25.3682 20.9767C25.1057 20.635 24.9198 20.2343 24.8126 19.7725C24.7054 19.3118 24.6518 18.7442 24.6518 18.0684V18.0684ZM27.2189 16.8283V19.9276H28.2109C28.5368 19.9276 28.7731 19.8904 28.9207 19.8151C29.0684 19.7387 29.1417 19.5662 29.1417 19.2966V16.1962H28.1387C27.8204 16.1962 27.5875 16.2344 27.4398 16.3097C27.2921 16.385 27.2189 16.5586 27.2189 16.8283V16.8283ZM37.58 21.7878H32.8025V14.3371H35.1912V19.8806H37.58V21.7878V21.7878ZM43.2828 21.7878H38.5064V14.3371H40.894V19.8806H43.2828V21.7878V21.7878ZM24.7043 32.0965H21.7304V36.0244H18.2326V25.4427H25.4043L24.9668 27.9732H21.7304V29.5736H24.7043V32.0965V32.0965ZM35.8562 36.0244H32.0084L30.5745 32.876H29.822V36.0244H26.3231V25.4427H31.8334C34.3414 25.4427 35.5948 26.6785 35.5948 29.1501C35.5948 30.8444 35.0523 31.9612 33.9673 32.5026L35.8562 36.0244V36.0244ZM29.822 28.1512V30.268H30.627C31.047 30.268 31.3532 30.2254 31.5446 30.1413C31.7371 30.0562 31.8334 29.8619 31.8334 29.5573V28.863C31.8334 28.5584 31.7371 28.363 31.5446 28.2789C31.3532 28.1938 31.047 28.1512 30.627 28.1512H29.822V28.1512ZM43.9478 32.0288H40.4489V33.4939H44.7342V36.0244H36.95V25.4427H44.6467L44.2103 27.9732H40.4489V29.5736H43.9478V32.0288V32.0288ZM53.0871 32.0288H49.5893V33.4939H53.8746V36.0244H46.0904V25.4427H53.7871L53.3496 27.9732H49.5893V29.5736H53.0871V32.0288V32.0288ZM8.22917 35.8847C9.02214 37.6969 9.96714 39.4577 11.2337 41.1171C12.6075 42.926 14.376 44.6279 16.7396 46.1748C17.187 46.4587 17.6803 46.093 18.0303 45.8124C18.2359 45.6476 18.4984 45.3779 18.7751 45.0799C19.8743 43.9216 21.236 42.4839 22.8318 43.45C22.8668 43.4708 22.8931 43.4937 22.9281 43.5144L28.1857 47.3419C28.201 47.3528 28.2196 47.3735 28.236 47.3855C28.9196 47.9728 29.1384 48.7894 29.0509 49.6759C28.8081 51.9073 27.0537 53.7664 24.9723 54.4487C23.8753 54.8155 22.6853 54.9476 21.5489 54.9913C19.766 55.059 18.1407 54.7162 16.5154 54.0175C14.9273 53.3308 13.3632 52.3134 11.6756 51.0023L11.552 50.9018C10.7776 50.2949 9.94198 49.6442 9.1348 48.8964C6.1762 46.1203 3.27886 42.2612 1.56276 38.175C0.12339 34.7449 -0.473798 31.1446 0.424171 27.8728C0.918546 26.0803 1.88433 24.5039 3.37183 23.5563C4.66683 22.7277 6.33042 22.3762 8.38995 22.7856C8.6273 22.8292 8.82527 22.9908 8.91386 23.2081L11.8484 29.6643C12.3001 30.4022 12.2925 31.0824 11.9315 31.7264C11.6318 32.2537 11.0959 32.7101 10.3871 33.1151C10.176 33.2592 9.92667 33.4022 9.66636 33.5506C9.02323 33.9174 8.31558 34.3268 8.0837 34.8508C7.89667 35.2722 8.06183 35.5015 8.22917 35.8847V35.8847ZM52.7098 40.0167C51.9824 41.2243 51.1607 42.3727 50.2521 43.4511C46.8834 47.4477 42.352 50.4357 37.1829 51.8931C36.0859 52.202 33.3384 52.928 32.3759 52.1551C32.5531 51.6016 32.7707 50.6704 32.8342 50.0776L32.8375 50.0481C32.89 49.5241 32.89 49.0001 32.8287 48.487C33.0945 48.2982 33.4062 48.1639 33.7496 48.106C38.9778 47.2065 43.5748 44.4707 46.8451 40.5909C47.0048 40.402 47.1601 40.211 47.3132 40.0167H52.7098V40.0167Z" fill="#353535"/>
</g>
<defs>
<clipPath id="clip0_1115_4392">
<rect width="56" height="55" fill="white"/>
</clipPath>
</defs>
</svg>
