<svg width="250" height="250" viewBox="0 0 250 250" fill="none" xmlns="http://www.w3.org/2000/svg">
<path d="M132.812 203.125C138.221 203.125 143.507 201.521 148.004 198.517C152.501 195.512 156.005 191.242 158.075 186.245C160.144 181.249 160.686 175.751 159.631 170.447C158.576 165.143 155.972 160.27 152.147 156.446C148.323 152.622 143.451 150.018 138.147 148.963C132.843 147.908 127.345 148.449 122.349 150.519C117.352 152.589 113.082 156.093 110.077 160.59C107.072 165.087 105.469 170.373 105.469 175.781C105.477 183.031 108.36 189.981 113.487 195.107C118.613 200.233 125.563 203.117 132.812 203.125V203.125ZM132.812 156.25C136.675 156.25 140.452 157.395 143.663 159.542C146.875 161.688 149.379 164.738 150.857 168.307C152.335 171.876 152.722 175.803 151.968 179.592C151.215 183.38 149.355 186.86 146.623 189.592C143.892 192.323 140.412 194.184 136.623 194.937C132.834 195.691 128.907 195.304 125.338 193.826C121.769 192.348 118.719 189.844 116.573 186.632C114.427 183.42 113.281 179.644 113.281 175.781C113.287 170.603 115.347 165.639 119.008 161.977C122.67 158.316 127.634 156.256 132.812 156.25Z" fill="url(#paint0_linear_102_2)"/>
<path d="M187.173 189.964L196.223 187.794C197.077 187.59 197.836 187.104 198.38 186.414C198.923 185.725 199.219 184.873 199.219 183.996V167.567C199.219 166.689 198.923 165.837 198.38 165.148C197.837 164.459 197.077 163.973 196.223 163.768L187.174 161.599C185.715 161.249 184.36 160.559 183.219 159.585C182.078 158.611 181.183 157.38 180.609 155.994C180.035 154.608 179.797 153.106 179.914 151.61C180.032 150.115 180.502 148.668 181.285 147.389L186.18 139.402C186.638 138.654 186.831 137.773 186.728 136.902C186.625 136.03 186.232 135.219 185.611 134.599L173.995 122.983C173.374 122.363 172.563 121.969 171.692 121.866C170.821 121.763 169.94 121.956 169.192 122.415L161.205 127.309C159.926 128.093 158.479 128.562 156.984 128.68C155.488 128.798 153.986 128.559 152.6 127.985C151.214 127.411 149.984 126.516 149.01 125.376C148.036 124.235 147.346 122.879 146.996 121.42L144.826 112.371C144.621 111.517 144.135 110.757 143.446 110.214C142.757 109.671 141.905 109.375 141.027 109.375H124.598C123.721 109.375 122.868 109.67 122.179 110.214C121.49 110.757 121.004 111.517 120.8 112.37L118.63 121.42C118.28 122.879 117.59 124.234 116.616 125.375C115.642 126.516 114.412 127.411 113.026 127.985C111.64 128.559 110.137 128.797 108.642 128.68C107.146 128.562 105.7 128.092 104.42 127.308L96.4333 122.414L92.3516 129.076L100.338 133.97C102.669 135.398 105.304 136.254 108.029 136.468C110.754 136.683 113.491 136.249 116.016 135.202C118.541 134.156 120.783 132.527 122.557 130.448C124.332 128.369 125.59 125.9 126.227 123.242L127.679 117.188H137.947L139.399 123.242C140.036 125.9 141.293 128.369 143.068 130.448C144.843 132.527 147.084 134.156 149.609 135.202C152.134 136.249 154.871 136.683 157.596 136.468C160.321 136.254 162.956 135.398 165.287 133.97L170.648 130.685L177.909 137.946L174.624 143.307C173.196 145.637 172.34 148.273 172.126 150.998C171.911 153.723 172.345 156.46 173.391 158.985C174.438 161.51 176.067 163.751 178.146 165.526C180.225 167.301 182.694 168.558 185.352 169.196L191.406 170.647V180.915L185.352 182.367C182.694 183.005 180.225 184.262 178.146 186.037C176.067 187.811 174.438 190.053 173.392 192.578C172.345 195.103 171.911 197.84 172.125 200.564C172.34 203.289 173.196 205.925 174.624 208.255L177.909 213.617L170.648 220.878L165.287 217.593C162.957 216.165 160.321 215.308 157.596 215.094C154.871 214.88 152.134 215.314 149.609 216.36C147.084 217.406 144.843 219.036 143.068 221.114C141.293 223.193 140.036 225.663 139.398 228.321L137.947 234.375H127.679L126.227 228.321C125.589 225.663 124.332 223.193 122.557 221.115C120.783 219.036 118.541 217.407 116.016 216.36C113.491 215.314 110.754 214.88 108.029 215.094C105.305 215.308 102.669 216.164 100.339 217.592L92.3516 222.486L96.4333 229.148L104.42 224.254C105.699 223.47 107.146 223 108.642 222.883C110.137 222.765 111.639 223.003 113.025 223.577C114.411 224.152 115.641 225.046 116.616 226.187C117.59 227.328 118.28 228.683 118.63 230.142L120.8 239.192C121.004 240.045 121.49 240.805 122.179 241.349C122.868 241.892 123.721 242.188 124.598 242.188H141.027C141.905 242.188 142.757 241.892 143.446 241.349C144.135 240.805 144.621 240.045 144.826 239.192L146.995 230.143C147.345 228.684 148.035 227.328 149.009 226.187C149.983 225.046 151.214 224.152 152.6 223.578C153.986 223.003 155.488 222.765 156.984 222.883C158.479 223 159.926 223.47 161.205 224.254L169.192 229.148C169.94 229.607 170.821 229.8 171.692 229.697C172.563 229.594 173.375 229.2 173.995 228.58L185.611 216.964C186.231 216.343 186.625 215.532 186.728 214.661C186.831 213.789 186.638 212.909 186.179 212.161L181.285 204.174C180.501 202.894 180.031 201.448 179.914 199.952C179.796 198.457 180.035 196.955 180.609 195.569C181.183 194.183 182.077 192.952 183.218 191.978C184.359 191.004 185.715 190.314 187.173 189.964V189.964Z" fill="url(#paint1_linear_102_2)"/>
<path d="M238.281 117.188H222.656V97.6562C222.656 96.6203 222.245 95.6267 221.512 94.8942C220.78 94.1616 219.786 93.7501 218.75 93.75H203.125C202.089 93.7501 201.095 94.1616 200.363 94.8942C199.63 95.6267 199.219 96.6203 199.219 97.6562V117.188H187.5V125H234.375V140.625H191.406V148.438H234.375V164.062H207.031V171.875H234.375V187.5H207.031V195.312H234.375V210.938H195.312V218.75H199.219V238.281C199.219 239.317 199.63 240.311 200.363 241.043C201.095 241.776 202.089 242.187 203.125 242.188H218.75C219.786 242.187 220.78 241.776 221.512 241.043C222.245 240.311 222.656 239.317 222.656 238.281V218.75H238.281C239.317 218.75 240.311 218.338 241.043 217.606C241.776 216.873 242.187 215.88 242.188 214.844V121.094C242.187 120.058 241.776 119.064 241.043 118.332C240.311 117.599 239.317 117.188 238.281 117.188V117.188ZM214.844 117.188H207.031V101.562H214.844V117.188ZM214.844 234.375H207.031V218.75H214.844V234.375Z" fill="url(#paint2_linear_102_2)"/>
<path d="M67.5201 119.981L65.2924 127.469C74.1572 130.106 78.125 134.015 78.125 136.719C78.125 139.145 75.0685 142.011 70.148 144.197C63.9963 146.932 55.7308 148.437 46.875 148.437C27.7987 148.437 15.625 141.497 15.625 136.719C15.625 134.015 19.5928 130.106 28.4576 127.469L26.2299 119.981C14.5254 123.463 7.8125 129.563 7.8125 136.719V223.772C7.8125 229.333 12.3272 234.259 20.5255 237.642C27.6275 240.573 36.9849 242.187 46.875 242.187C56.7651 242.187 66.1225 240.573 73.2245 237.642C81.4228 234.259 85.9375 229.333 85.9375 223.772V136.719C85.9375 129.563 79.2246 123.463 67.5201 119.981ZM23.4375 230.392C18.6898 228.419 15.625 225.825 15.625 223.772V215.125C18.0701 216.705 20.6923 217.992 23.4375 218.96V230.392ZM42.9688 234.28C39.0277 234.11 35.1078 233.611 31.25 232.788V221.142C35.1128 221.924 39.0311 222.4 42.9688 222.566V234.28ZM62.5 232.788C58.6422 233.611 54.7223 234.11 50.7812 234.28V222.566C54.7189 222.4 58.6372 221.924 62.5 221.142V232.788ZM78.125 223.772C78.125 225.825 75.0602 228.419 70.3125 230.392V218.96C73.0577 217.992 75.6799 216.705 78.125 215.125V223.772ZM78.125 203.125C78.125 205.551 75.0685 208.417 70.148 210.604C63.9963 213.338 55.7308 214.844 46.875 214.844C27.7987 214.844 15.625 207.903 15.625 203.125V148.719C22.635 153.357 33.8094 156.25 46.875 156.25C59.9406 156.25 71.115 153.357 78.125 148.719V203.125Z" fill="url(#paint3_linear_102_2)"/>
<path d="M23.4375 160.156H31.25V203.125H23.4375V160.156Z" fill="url(#paint4_linear_102_2)"/>
<path d="M42.9688 164.062H50.7812V207.031H42.9688V164.062Z" fill="url(#paint5_linear_102_2)"/>
<path d="M62.5 160.156H70.3125V203.125H62.5V160.156Z" fill="url(#paint6_linear_102_2)"/>
<path d="M42.9688 105.469C42.9688 104.433 43.3803 103.439 44.1129 102.707C44.8454 101.974 45.839 101.562 46.875 101.562C47.911 101.562 48.9046 101.974 49.6371 102.707C50.3697 103.439 50.7812 104.433 50.7812 105.469V136.719H58.5938V105.469C58.5938 102.361 57.3591 99.38 55.1614 97.1823C52.9637 94.9846 49.983 93.75 46.875 93.75C43.767 93.75 40.7863 94.9846 38.5886 97.1823C36.3909 99.38 35.1562 102.361 35.1562 105.469V136.719H42.9688V105.469Z" fill="url(#paint7_linear_102_2)"/>
<path d="M54.6875 85.9375H111.328L121.875 99.9999C122.239 100.485 122.711 100.879 123.253 101.15C123.795 101.421 124.394 101.563 125 101.562C125.606 101.563 126.205 101.421 126.747 101.15C127.289 100.879 127.761 100.485 128.125 99.9999L138.672 85.9375H195.312C198.419 85.9339 201.398 84.6982 203.595 82.5012C205.792 80.3043 207.028 77.3257 207.031 74.2188V19.5312C207.028 16.4243 205.792 13.4457 203.595 11.2488C201.398 9.05185 198.419 7.81605 195.312 7.8125H54.6875C51.5806 7.81605 48.6019 9.05185 46.405 11.2488C44.2081 13.4457 42.9723 16.4243 42.9688 19.5312V74.2188C42.9723 77.3257 44.2081 80.3043 46.405 82.5012C48.6019 84.6982 51.5806 85.9339 54.6875 85.9375V85.9375ZM50.7812 19.5312C50.7824 18.4956 51.1944 17.5027 51.9267 16.7704C52.659 16.0381 53.6519 15.6262 54.6875 15.625H195.312C196.348 15.6262 197.341 16.0381 198.073 16.7704C198.806 17.5027 199.218 18.4956 199.219 19.5312V74.2188C199.218 75.2544 198.806 76.2473 198.073 76.9796C197.341 77.7119 196.348 78.1238 195.312 78.125H136.719C136.112 78.125 135.514 78.2662 134.972 78.5374C134.429 78.8087 133.957 79.2024 133.594 79.6876L125 91.146L116.406 79.6876C116.043 79.2024 115.571 78.8087 115.028 78.5374C114.486 78.2662 113.888 78.125 113.281 78.125H54.6875C53.6519 78.1238 52.659 77.7119 51.9267 76.9796C51.1944 76.2473 50.7824 75.2544 50.7812 74.2188V19.5312Z" fill="url(#paint8_linear_102_2)"/>
<path d="M85.9375 70.3125H101.562C107.779 70.3125 113.74 67.8432 118.135 63.4478C122.531 59.0524 125 53.091 125 46.875C125 40.659 122.531 34.6976 118.135 30.3022C113.74 25.9068 107.779 23.4375 101.562 23.4375H85.9375C79.7215 23.4375 73.7601 25.9068 69.3647 30.3022C64.9693 34.6976 62.5 40.659 62.5 46.875C62.5 53.091 64.9693 59.0524 69.3647 63.4478C73.7601 67.8432 79.7215 70.3125 85.9375 70.3125V70.3125ZM116.693 42.9688H109.043C108.315 38.6611 106.393 34.6441 103.495 31.3739C106.602 31.7659 109.52 33.0802 111.873 35.147C114.225 37.2138 115.904 39.9383 116.693 42.9688V42.9688ZM109.043 50.7812H116.693C115.904 53.8117 114.225 56.5362 111.873 58.603C109.52 60.6698 106.602 61.9841 103.495 62.3761C106.393 59.1059 108.315 55.0889 109.043 50.7812V50.7812ZM85.9375 31.25C89.0278 31.25 92.0488 32.1664 94.6183 33.8833C97.1878 35.6002 99.1905 38.0405 100.373 40.8956C101.556 43.7507 101.865 46.8923 101.262 49.9233C100.659 52.9542 99.1712 55.7383 96.986 57.9235C94.8008 60.1087 92.0167 61.5969 88.9858 62.1998C85.9548 62.8027 82.8132 62.4932 79.9581 61.3106C77.103 60.128 74.6627 58.1253 72.9458 55.5558C71.2289 52.9863 70.3125 49.9653 70.3125 46.875C70.3172 42.7324 71.965 38.7609 74.8942 35.8317C77.8234 32.9025 81.7949 31.2547 85.9375 31.25V31.25Z" fill="url(#paint9_linear_102_2)"/>
<path d="M156.25 48.4929L161.3 53.5436C162.033 54.2759 163.026 54.6873 164.062 54.6873C165.098 54.6873 166.092 54.2759 166.824 53.5436L183.593 36.7746V46.875H191.406V27.3438C191.406 26.3078 190.994 25.3142 190.262 24.5817C189.529 23.8491 188.536 23.4376 187.5 23.4375H167.968V31.25H178.069L164.062 45.2571L159.012 40.2064C158.279 39.4741 157.286 39.0627 156.25 39.0627C155.214 39.0627 154.22 39.4741 153.487 40.2064L130.05 63.6439L135.574 69.1686L156.25 48.4929Z" fill="url(#paint10_linear_102_2)"/>
<defs>
<linearGradient id="paint0_linear_102_2" x1="132.813" y1="1.35646" x2="132.813" y2="244.228" gradientUnits="userSpaceOnUse">
<stop stop-color="#2AB793"/>
<stop offset="1" stop-color="#2A8FAA"/>
</linearGradient>
<linearGradient id="paint1_linear_102_2" x1="145.785" y1="1.35645" x2="145.785" y2="244.228" gradientUnits="userSpaceOnUse">
<stop stop-color="#2AB793"/>
<stop offset="1" stop-color="#2A8FAA"/>
</linearGradient>
<linearGradient id="paint2_linear_102_2" x1="214.844" y1="1.35645" x2="214.844" y2="244.228" gradientUnits="userSpaceOnUse">
<stop stop-color="#2AB793"/>
<stop offset="1" stop-color="#2A8FAA"/>
</linearGradient>
<linearGradient id="paint3_linear_102_2" x1="46.875" y1="1.35635" x2="46.875" y2="244.228" gradientUnits="userSpaceOnUse">
<stop stop-color="#2AB793"/>
<stop offset="1" stop-color="#2A8FAA"/>
</linearGradient>
<linearGradient id="paint4_linear_102_2" x1="27.3437" y1="1.35644" x2="27.3437" y2="244.228" gradientUnits="userSpaceOnUse">
<stop stop-color="#2AB793"/>
<stop offset="1" stop-color="#2A8FAA"/>
</linearGradient>
<linearGradient id="paint5_linear_102_2" x1="46.875" y1="1.35644" x2="46.875" y2="244.228" gradientUnits="userSpaceOnUse">
<stop stop-color="#2AB793"/>
<stop offset="1" stop-color="#2A8FAA"/>
</linearGradient>
<linearGradient id="paint6_linear_102_2" x1="66.4062" y1="1.35644" x2="66.4062" y2="244.228" gradientUnits="userSpaceOnUse">
<stop stop-color="#2AB793"/>
<stop offset="1" stop-color="#2A8FAA"/>
</linearGradient>
<linearGradient id="paint7_linear_102_2" x1="46.875" y1="1.35644" x2="46.875" y2="244.228" gradientUnits="userSpaceOnUse">
<stop stop-color="#2AB793"/>
<stop offset="1" stop-color="#2A8FAA"/>
</linearGradient>
<linearGradient id="paint8_linear_102_2" x1="125" y1="1.35645" x2="125" y2="244.228" gradientUnits="userSpaceOnUse">
<stop stop-color="#2AB793"/>
<stop offset="1" stop-color="#2A8FAA"/>
</linearGradient>
<linearGradient id="paint9_linear_102_2" x1="93.75" y1="1.35645" x2="93.75" y2="244.228" gradientUnits="userSpaceOnUse">
<stop stop-color="#2AB793"/>
<stop offset="1" stop-color="#2A8FAA"/>
</linearGradient>
<linearGradient id="paint10_linear_102_2" x1="160.728" y1="1.35645" x2="160.728" y2="244.228" gradientUnits="userSpaceOnUse">
<stop stop-color="#2AB793"/>
<stop offset="1" stop-color="#2A8FAA"/>
</linearGradient>
</defs>
</svg>
