<svg width="200" height="166" viewBox="0 0 200 166" fill="none" xmlns="http://www.w3.org/2000/svg">
<path d="M0 67.5239V141.81H18.6717V165.143H52.0419V141.81H147.958V165.143H181.329V141.81H200V67.5239H182.11L159.253 0.856934H40.7477L17.8909 67.5239H0ZM171.428 104.667C171.428 114.397 163.541 122.286 153.81 122.286C144.079 122.286 136.19 114.397 136.19 104.667C136.19 94.9348 144.079 87.0465 153.81 87.0465C163.541 87.0473 171.428 94.9357 171.428 104.667ZM61.1569 29.4279H138.845L151.906 67.5239H48.096L61.1569 29.4279ZM46.1902 87.0473C55.9219 87.0473 63.8103 94.9357 63.8103 104.667C63.8103 114.398 55.9219 122.287 46.1902 122.287C36.4602 122.287 28.571 114.398 28.571 104.667C28.571 94.9357 36.4602 87.0473 46.1902 87.0473Z" fill="white"/>
</svg>
