<svg width="50" height="50" viewBox="0 0 50 50" fill="none" xmlns="http://www.w3.org/2000/svg">
<path d="M5.55556 19.2981L9.72222 6.79814H40.2778L44.4444 19.2981M40.2778 33.187C39.1727 33.187 38.1129 32.748 37.3315 31.9666C36.5501 31.1852 36.1111 30.1254 36.1111 29.0204C36.1111 27.9153 36.5501 26.8555 37.3315 26.0741C38.1129 25.2927 39.1727 24.8537 40.2778 24.8537C41.3828 24.8537 42.4427 25.2927 43.2241 26.0741C44.0055 26.8555 44.4444 27.9153 44.4444 29.0204C44.4444 30.1254 44.0055 31.1852 43.2241 31.9666C42.4427 32.748 41.3828 33.187 40.2778 33.187ZM9.72222 33.187C8.61715 33.187 7.55734 32.748 6.77594 31.9666C5.99454 31.1852 5.55556 30.1254 5.55556 29.0204C5.55556 27.9153 5.99454 26.8555 6.77594 26.0741C7.55734 25.2927 8.61715 24.8537 9.72222 24.8537C10.8273 24.8537 11.8871 25.2927 12.6685 26.0741C13.4499 26.8555 13.8889 27.9153 13.8889 29.0204C13.8889 30.1254 13.4499 31.1852 12.6685 31.9666C11.8871 32.748 10.8273 33.187 9.72222 33.187ZM44.2222 5.40925C43.6667 3.79814 42.1111 2.63147 40.2778 2.63147H9.72222C7.88889 2.63147 6.33333 3.79814 5.77778 5.40925L0 22.0759V44.2981C0 45.0349 0.292658 45.7414 0.813592 46.2623C1.33453 46.7833 2.04107 47.0759 2.77778 47.0759H5.55556C6.29227 47.0759 6.99881 46.7833 7.51974 46.2623C8.04067 45.7414 8.33333 45.0349 8.33333 44.2981V41.5204H41.6667V44.2981C41.6667 45.0349 41.9593 45.7414 42.4803 46.2623C43.0012 46.7833 43.7077 47.0759 44.4444 47.0759H47.2222C47.9589 47.0759 48.6655 46.7833 49.1864 46.2623C49.7073 45.7414 50 45.0349 50 44.2981V22.0759L44.2222 5.40925Z" fill="black"/>
</svg>
