<svg version="1.1" id="Layer_1" xmlns="http://www.w3.org/2000/svg" x="0" y="0" viewBox="0 0 1166.8 447.3" xml:space="preserve"><style>.st0{fill:none;stroke:#fff;stroke-width:1.8;stroke-linecap:round;stroke-linejoin:round;stroke-miterlimit:20}.st1{fill:#010518}.st2{fill:#fff}.st3,.st4{fill:none;stroke-width:1.8;stroke-miterlimit:20}.st3{stroke:#fafafa;stroke-linecap:round;stroke-linejoin:round}.st4{stroke:#fff}</style><path class="st0" d="M463.4 252.4v-29.5c0-9.1 7.4-16.5 16.5-16.5s16.5 7.4 16.5 16.5v29.5h5M422.9 252.9v-29.5c0-9.1 7.4-16.5 16.5-16.5s16.5 7.4 16.5 16.5v29.5h5M501.4 252.4v-29.5c0-9.1 7.4-16.5 16.5-16.5s16.5 7.4 16.5 16.5v29.5h5M539.4 252.4v-29.5c0-9.1 7.4-16.5 16.5-16.5s16.5 7.4 16.5 16.5v29.5h5M577.4 252.4v-29.5c0-9.1 7.4-16.5 16.5-16.5s16.5 7.4 16.5 16.5v29.5h5M615.4 252.4v-29.5c0-9.1 7.4-16.5 16.5-16.5s16.5 7.4 16.5 16.5v29.5h5M653.4 252.4v-29.5c0-9.1 7.4-16.5 16.5-16.5s16.5 7.4 16.5 16.5v29.5h5M691.4 252.4v-29.5c0-9.1 7.4-16.5 16.5-16.5s16.5 7.4 16.5 16.5v29.5h5M729.4 252.4v-29.5c0-9.1 7.4-16.5 16.5-16.5s16.5 7.4 16.5 16.5v29.5h5M767.9 251.9v-29.5c0-9.1 7.4-16.5 16.5-16.5s16.5 7.4 16.5 16.5v29.5h5"/><path class="st1" d="M316.4 205.4h607.5v-9H316.4v9z"/><path class="st0" d="M316.4 205.4h607.5v-9H316.4v9zM404.9 252.4h377M323.4 273.9h17v-40.5h-17v40.5z"/><path class="st2" d="M323.4 225.4h7v-3h-7v3zM343.4 225.4h7v-3h-7v3zM363.4 225.4h7v-3h-7v3z"/><path class="st0" d="M353.4 273.9h17v-40.5h-17v40.5zM867.4 265.9h17v-40.5h-17v40.5z"/><path class="st2" d="M867.4 217.4h7v-3h-7v3zM887.4 217.4h7v-3h-7v3zM907.4 217.4h7v-3h-7v3z"/><path class="st0" d="M897.4 265.9h17v-40.5h-17v40.5zM113.4 292.4h69v-82h-69v82z"/><path class="st2" d="M124.9 225.9h7v-3h-7v3zM144.9 225.9h7v-3h-7v3zM164.9 225.9h7v-3h-7v3z"/><path class="st0" d="M128.4 276.9h17v-40.5h-17v40.5zM155.4 276.9h17v-40.5h-17v40.5zM20.4 292.9h93v-70.5h-93v70.5z"/><path class="st0" d="M29.4 281.4h17v-39h-17v39zM66.4 281.4h17v-39h-17v39zM103.4 281.4h10v-39h-10v39z"/><path class="st2" d="M38.4 235.4h7v-3h-7v3zM58.4 235.4h7v-3h-7v3zM78.4 235.4h7v-3h-7v3zM98.4 235.4h7v-3h-7v3z"/><path class="st0" d="M182.5 296.4h134v-262h-134v262z"/><path class="st0" d="M182.5 78.9h134v-5h-134v5z"/><path class="st2" d="M182.5 281.4h134v-5h-134v5zM182.4 96.4h35v-5h-35v5z"/><path class="st3" d="M225 105.4h8.9v-5H225v5zM225 96.4h8.9v-5H225v5zM225 114.4h8.9v-5H225v5zM225 123.4h8.9v-5H225v5zM225 132.4h8.9v-5H225v5zM225 141.4h8.9v-5H225v5zM225 150.4h8.9v-5H225v5zM225 159.4h8.9v-5H225v5zM225 168.4h8.9v-5H225v5zM225 177.4h8.9v-5H225v5zM225 186.4h8.9v-5H225v5zM225 195.4h8.9v-5H225v5zM225 204.4h8.9v-5H225v5zM225 213.4h8.9v-5H225v5zM225 222.4h8.9v-5H225v5zM225 231.4h8.9v-5H225v5zM225 240.4h8.9v-5H225v5zM225 249.4h8.9v-5H225v5zM225 259.4h8.9v-5H225v5zM225 268.4h8.9v-5H225v5zM266 105.4h8.9v-5H266v5zM266 96.4h8.9v-5H266v5zM266 114.4h8.9v-5H266v5zM266 123.4h8.9v-5H266v5zM266 132.4h8.9v-5H266v5zM266 141.4h8.9v-5H266v5zM266 150.4h8.9v-5H266v5zM266 159.4h8.9v-5H266v5zM266 168.4h8.9v-5H266v5zM266 177.4h8.9v-5H266v5zM266 186.4h8.9v-5H266v5zM266 195.4h8.9v-5H266v5zM266 204.4h8.9v-5H266v5zM266 213.4h8.9v-5H266v5zM266 222.4h8.9v-5H266v5zM266 231.4h8.9v-5H266v5zM266 240.4h8.9v-5H266v5zM266 249.4h8.9v-5H266v5zM266 259.4h8.9v-5H266v5zM266 268.4h8.9v-5H266v5z"/><path class="st2" d="M281.4 95.4h35v-5h-35v5z"/><path class="st0" d="M258.5 100.4l-9-7-9 7v168h18v-168zM281.4 268.4h35v-163h-35v163zM182.4 268.4h35v-163h-35v163zM219.4 59.2h62v-14h-62v14zM229.4 48.7v7M237.4 48.7v7M245.4 48.7v7M253.4 48.7v7M261.4 48.7v7M271.4 48.7v7M253.7 34.4h-31.2l15.6-16.8L253.7.8l15.6 16.8 15.6 16.8h-31.2z"/><path class="st4" d="M890.4 372.8h261v-52h-261v52z"/><path class="st2" d="M381.9 112.9h-5.4l2.7-9 2.7-9.1 2.7 9.1 2.7 9h-5.4z"/><path class="st2" d="M381.9 97.9h-4.4l2.2-5 2.2-5 2.2 5 2.2 5h-4.4z"/><path class="st1" d="M409.9 125.9l18 207h-92l18-207c9-1.7 19.2-3.5 30-3.5 9.3 0 18.1 2.2 26 3.5z"/><path class="st0" d="M409.9 125.9l18 207h-92l18-207c9-1.7 19.2-3.5 30-3.5 9.3 0 18.1 2.2 26 3.5z"/><path class="st2" d="M378.6 146.4h4.5v-5h-4.5v5zM378.6 155.4h4.5v-5h-4.5v5zM378.6 164.4h4.5v-5h-4.5v5zM378.6 173.4h4.5v-5h-4.5v5zM378.6 182.4h4.5v-5h-4.5v5zM378.6 191.4h4.5v-5h-4.5v5zM378.6 200.4h4.5v-5h-4.5v5zM378.6 209.4h4.5v-5h-4.5v5zM378.6 218.4h4.5v-5h-4.5v5zM378.6 227.4h4.5v-5h-4.5v5zM378.6 236.4h4.5v-5h-4.5v5zM378.6 245.4h4.5v-5h-4.5v5zM387.6 218.4h4.5v-5h-4.5v5zM387.6 227.4h4.5v-5h-4.5v5zM387.6 236.4h4.5v-5h-4.5v5zM387.6 245.4h4.5v-5h-4.5v5zM387.6 254.4h4.5v-5h-4.5v5zM387.6 263.4h4.5v-5h-4.5v5zM387.6 272.4h4.5v-5h-4.5v5zM387.6 281.4h4.5v-5h-4.5v5zM387.6 290.4h4.5v-5h-4.5v5zM387.6 299.4h4.5v-5h-4.5v5zM387.6 308.4h4.5v-5h-4.5v5zM387.6 317.4h4.5v-5h-4.5v5z"/><path class="st0" d="M382.4 113.4v9"/><path class="st2" d="M820.9 111.9h-5.4l2.7-9 2.7-9.1 2.7 9.1 2.7 9h-5.4z"/><path class="st2" d="M820.9 96.9h-4.4l2.2-5 2.2-5 2.2 5 2.2 5h-4.4z"/><path class="st1" d="M848.9 124.9l18 207h-92l18-207c9-1.7 19.2-3.5 30-3.5 9.3 0 18.1 2.2 26 3.5z"/><path class="st4" d="M848.9 124.9l18 207h-92l18-207c9-1.7 19.2-3.5 30-3.5 9.3 0 18.1 2.2 26 3.5z"/><path class="st2" d="M817.6 145.4h4.5v-5h-4.5v5zM817.6 154.4h4.5v-5h-4.5v5zM817.6 163.4h4.5v-5h-4.5v5zM817.6 172.4h4.5v-5h-4.5v5zM817.6 181.4h4.5v-5h-4.5v5zM817.6 190.4h4.5v-5h-4.5v5zM817.6 199.4h4.5v-5h-4.5v5zM817.6 208.4h4.5v-5h-4.5v5zM817.6 217.4h4.5v-5h-4.5v5zM817.6 226.4h4.5v-5h-4.5v5zM817.6 235.4h4.5v-5h-4.5v5zM817.6 244.4h4.5v-5h-4.5v5zM826.6 217.4h4.5v-5h-4.5v5zM826.6 226.4h4.5v-5h-4.5v5zM826.6 235.4h4.5v-5h-4.5v5zM826.6 244.4h4.5v-5h-4.5v5zM826.6 253.4h4.5v-5h-4.5v5zM826.6 262.4h4.5v-5h-4.5v5zM826.6 271.4h4.5v-5h-4.5v5zM826.6 280.4h4.5v-5h-4.5v5zM826.6 289.4h4.5v-5h-4.5v5zM826.6 298.4h4.5v-5h-4.5v5zM826.6 307.4h4.5v-5h-4.5v5zM826.6 316.4h4.5v-5h-4.5v5z"/><path class="st4" d="M821.4 112.4v9"/><path class="st1" d="M7.4 372.4h383v-80H7.4v80z"/><path class="st0" d="M7.4 372.4h383v-80H7.4v80z"/><path class="st0" d="M248.4 372.4h-73v-29l36.5-12 36.5 12v29zM267.9 372.9h122v-21h-122v21zM7.4 372.4h148v-21H7.4v21z"/><path class="st4" d="M31.6 351.9v21M56.3 351.9v21M80.9 351.9v21M105.6 351.9v21M130.2 351.9v21M292.6 351.9v21M317.3 351.9v21M341.9 351.9v21M366.6 351.9v21"/><path class="st0" d="M.9 372.9h1165M142.4 407.4h104M165.4 424.4h169M524.4 428.4h169M621.4 416.4h104M1040.4 427.4h104M1021.4 411.4h46M147.4 441.4h23"/><path class="st1" d="M1039.4 320.9h20.2V59.4h-20.2v261.5z"/><path class="st4" d="M1039.4 320.9h20.2V59.4h-20.2v261.5z"/><path class="st1" d="M1115.7 320.9h20.2V59.4h-20.2v261.5z"/><path class="st4" d="M1115.7 320.9h20.2V59.4h-20.2v261.5z"/><path class="st1" d="M1059.6 320.9h55.8V65.5h-55.8v255.4z"/><path class="st4" d="M1059.6 320.9h55.8V65.5h-55.8v255.4z"/><path class="st4" d="M1059.4 87.4h56v-22h-56v22z"/><path class="st2" d="M1086.4 320.9h3v-204h-3v204zM1048.4 320.9h3V65.4h-3v255.5zM1125.4 320.9h3V65.4h-3v255.5z"/><path d="M1087.7 65.4h0-25.6 0l12.8-13.8h0l12.8-13.8h0l12.8 13.8h0l12.8 13.8h0-25.6z" fill="none" stroke="#fafafa" stroke-width="1.8" stroke-miterlimit="20"/><path class="st2" d="M1058.9 118.9h57v-3h-57v3zM1058.9 102.9h57v-3h-57v3z"/><path class="st1" d="M817.4 295.7l.2-12c.1-11.6 9.3-20.9 20.6-20.8 11.3.1 20.4 9.6 20.3 21.1v11.9l-41.1-.2z"/><path class="st4" d="M817.4 295.7l.2-12c.1-11.6 9.3-20.9 20.6-20.8 11.3.1 20.4 9.6 20.3 21.1v11.9l-41.1-.2z"/><path d="M818 287.5h40.5v-5.1H818v5.1z"/><path class="st4" d="M818 287.5h40.5v-5.1H818v5.1zM400.4 332.4h366.5"/><path class="st1" d="M923.8 320.4h102.5V128.9H923.8v191.5z"/><path class="st4" d="M923.8 320.4h102.5V128.9H923.8v191.5z"/><path class="st1" d="M924.3 320.4h20V128.9h-20v191.5z"/><path class="st4" d="M924.3 320.4h20V128.9h-20v191.5z"/><path class="st1" d="M934.3 129.4v190.5"/><path class="st0" d="M934.3 129.4v190.5"/><path class="st1" d="M1006.3 320.4h20V128.9h-20v191.5z"/><path class="st4" d="M1006.3 320.4h20V128.9h-20v191.5z"/><path class="st1" d="M1015.3 129.4v190.5"/><path class="st0" d="M1015.3 129.4v190.5"/><path class="st4" d="M1002.8 128.8l.1-9.2c0-4.8 4.5-8.7 10.1-8.7 5.5 0 10 4 9.9 8.9v9.1l-20.1-.1z"/><path class="st2" d="M1003.4 122.9h19.5v-2.5h-19.5v2.5z"/><path class="st1" d="M927.8 128.8l.1-9.2c0-4.8 4.5-8.7 10.1-8.7 5.5 0 10 4 9.9 8.9v9.1l-20.1-.1z"/><path class="st4" d="M927.8 128.8l.1-9.2c0-4.8 4.5-8.7 10.1-8.7 5.5 0 10 4 9.9 8.9v9.1l-20.1-.1z"/><path class="st2" d="M928.4 122.9h19.5v-2.5h-19.5v2.5z"/><path class="st4" d="M954.4 128.7l.2-12c.1-11.6 9.3-20.9 20.6-20.8 11.3.1 20.4 9.6 20.3 21.1v11.9l-41.1-.2z"/><path class="st2" d="M955 120.5h40.5v-5.1H955v5.1z"/><path class="st3" d="M959 153.7h12.9v-5.5H959v5.5zM959 143.9h12.9v-5.5H959v5.5zM959 163.5h12.9V158H959v5.5zM959 173.4h12.9v-5.5H959v5.5zM959 183.2h12.9v-5.5H959v5.5zM959 193.1h12.9v-5.5H959v5.5zM959 202.9h12.9v-5.5H959v5.5zM959 212.7h12.9v-5.5H959v5.5zM959 222.6h12.9v-5.5H959v5.5zM959 232.4h12.9v-5.5H959v5.5zM959 242.3h12.9v-5.5H959v5.5zM959 252.1h12.9v-5.5H959v5.5zM959 261.9h12.9v-5.5H959v5.5zM959 271.8h12.9v-5.5H959v5.5zM959 281.6h12.9v-5.5H959v5.5zM959 291.4h12.9V286H959v5.4zM959 301.3h12.9v-5.5H959v5.5zM959 311.1h12.9v-5.5H959v5.5zM979 153.7h12.9v-5.5H979v5.5zM979 143.9h12.9v-5.5H979v5.5zM979 163.5h12.9V158H979v5.5zM979 173.4h12.9v-5.5H979v5.5zM979 183.2h12.9v-5.5H979v5.5zM979 193.1h12.9v-5.5H979v5.5zM979 202.9h12.9v-5.5H979v5.5zM979 212.7h12.9v-5.5H979v5.5zM979 222.6h12.9v-5.5H979v5.5zM979 232.4h12.9v-5.5H979v5.5zM979 242.3h12.9v-5.5H979v5.5zM979 252.1h12.9v-5.5H979v5.5zM979 261.9h12.9v-5.5H979v5.5zM979 271.8h12.9v-5.5H979v5.5zM979 281.6h12.9v-5.5H979v5.5zM979 291.4h12.9V286H979v5.4zM979 301.3h12.9v-5.5H979v5.5zM979 311.1h12.9v-5.5H979v5.5z"/><path class="st1" d="M767 372.4h133v-76.7H767v76.7z"/><path class="st4" d="M767 372.4h133v-76.7H767v76.7z"/><path class="st3" d="M879.9 329.9h5.5V317h-5.5v12.9zM870.1 329.9h5.5V317h-5.5v12.9zM850.4 329.9h5.5V317h-5.5v12.9zM840.6 329.9h5.5V317h-5.5v12.9zM820.9 329.9h5.5V317h-5.5v12.9zM811.1 329.9h5.5V317h-5.5v12.9zM791.4 329.9h5.5V317h-5.5v12.9zM781.5 329.9h5.5V317h-5.5v12.9zM879.9 350.9h5.5V338h-5.5v12.9zM870.1 350.9h5.5V338h-5.5v12.9zM850.4 350.9h5.5V338h-5.5v12.9zM840.6 350.9h5.5V338h-5.5v12.9zM820.9 350.9h5.5V338h-5.5v12.9zM811.1 350.9h5.5V338h-5.5v12.9zM791.4 350.9h5.5V338h-5.5v12.9zM781.5 350.9h5.5V338h-5.5v12.9zM1015.6 361.5h5.8V332h-5.8v29.5zM1005.2 361.5h5.8V332h-5.8v29.5zM984.4 361.5h5.8V332h-5.8v29.5zM974 361.5h5.8V332H974v29.5zM953.2 361.5h5.8V332h-5.8v29.5zM942.8 361.5h5.8V332h-5.8v29.5zM922 361.5h5.8V332H922v29.5zM911.5 361.5h5.8V332h-5.8v29.5zM1135.1 361.5h5.8V332h-5.8v29.5zM1124.7 361.5h5.8V332h-5.8v29.5zM1103.9 361.5h5.8V332h-5.8v29.5zM1093.5 361.5h5.8V332h-5.8v29.5zM1072.7 361.5h5.8V332h-5.8v29.5zM1062.3 361.5h5.8V332h-5.8v29.5zM1041.5 361.5h5.8V332h-5.8v29.5zM1031.1 361.5h5.8V332h-5.8v29.5z"/><path class="st1" d="M444.4 361.8c0 8.6-7 15.6-15.6 15.6s-15.6-7-15.6-15.6 7-15.6 15.6-15.6 15.6 7 15.6 15.6"/><path class="st0" d="M444.4 361.8c0 8.6-7 15.6-15.6 15.6s-15.6-7-15.6-15.6 7-15.6 15.6-15.6 15.6 7 15.6 15.6zM428.9 366.7l-5-5.3M428.9 366.7l5-5.3M428.9 359.9v35.5"/><path class="st1" d="M479.4 361.5c0 8.6-7 15.6-15.6 15.6s-15.6-7-15.6-15.6 7-15.6 15.6-15.6 15.6 7 15.6 15.6"/><path class="st0" d="M479.4 361.5c0 8.6-7 15.6-15.6 15.6s-15.6-7-15.6-15.6 7-15.6 15.6-15.6 15.6 7 15.6 15.6zM463.9 366.5l-5-5.3M463.9 366.5l5-5.3M463.9 359.7v35.7"/><path class="st1" d="M514.4 361.8c0 8.6-7 15.6-15.6 15.6s-15.6-7-15.6-15.6 7-15.6 15.6-15.6 15.6 7 15.6 15.6"/><path class="st0" d="M514.4 361.8c0 8.6-7 15.6-15.6 15.6s-15.6-7-15.6-15.6 7-15.6 15.6-15.6 15.6 7 15.6 15.6zM498.9 366.7l-5-5.3M498.9 366.7l5-5.3M498.9 359.9v35.5"/><path class="st1" d="M1046.4 286.8c0 8.6-7 15.6-15.6 15.6s-15.6-7-15.6-15.6 7-15.6 15.6-15.6 15.6 7 15.6 15.6"/><path class="st0" d="M1046.4 286.8c0 8.6-7 15.6-15.6 15.6s-15.6-7-15.6-15.6 7-15.6 15.6-15.6 15.6 7 15.6 15.6zM1030.8 291.7l-5-5.3M1030.8 291.7l5-5.3M1030.8 284.9v35.5M942.1 386.9l11.3 11.5M942.1 386.9l-11.3 11.5M942.1 398.1l11.3 11.5M942.1 398.1l-11.3 11.5M942.1 409.3l11.3 11.5M942.1 409.3l-11.3 11.5M942.1 431.4v-44.2M911.1 395.9l11.3 11.5M911.1 395.9l-11.3 11.5M911.1 407.1l11.3 11.5M911.1 407.1l-11.3 11.5M911.1 418.3l11.3 11.5M911.1 418.3l-11.3 11.5M911.1 440.4v-44.2M693.1 287.9l11.3 11.5M693.1 287.9l-11.3 11.5M693.1 299.1l11.3 11.5M693.1 299.1l-11.3 11.5M693.1 310.3l11.3 11.5M693.1 310.3l-11.3 11.5M693.1 332.4v-44.2M510.1 287.9l11.3 11.5M510.1 287.9l-11.3 11.5M510.1 299.1l11.3 11.5M510.1 299.1l-11.3 11.5M510.1 310.3l11.3 11.5M510.1 310.3l-11.3 11.5M510.1 332.4v-44.2M87.1 392.9l11.3 11.5M87.1 392.9l-11.3 11.5M87.1 404.1l11.3 11.5M87.1 404.1l-11.3 11.5M87.1 415.3l11.3 11.5M87.1 415.3l-11.3 11.5M87.1 437.4v-44.2M56.1 401.9l11.3 11.5M56.1 401.9l-11.3 11.5M56.1 413.1l11.3 11.5M56.1 413.1l-11.3 11.5M56.1 424.3l11.3 11.5M56.1 424.3l-11.3 11.5M56.1 446.4v-44.2M125.1 165.9l11.3 11.5M125.1 165.9l-11.3 11.5M125.1 177.1l11.3 11.5M125.1 177.1l-11.3 11.5M125.1 188.3l11.3 11.5M125.1 188.3l-11.3 11.5M125.1 210.4v-44.2M94.1 175.9l11.3 11.5M94.1 175.9l-11.3 11.5M94.1 187.1l11.3 11.5M94.1 187.1l-11.3 11.5M94.1 198.3l11.3 11.5M94.1 198.3l-11.3 11.5M94.1 220.4v-44.2"/><path class="st1" d="M901.4 259.8c0 8.6-7 15.6-15.6 15.6s-15.6-7-15.6-15.6 7-15.6 15.6-15.6 15.6 7 15.6 15.6"/><path class="st0" d="M901.4 259.8c0 8.6-7 15.6-15.6 15.6s-15.6-7-15.6-15.6 7-15.6 15.6-15.6 15.6 7 15.6 15.6zM885.8 264.7l-5-5.3M885.8 264.7l5-5.3M885.8 257.9v35.5"/><path class="st1" d="M749.4 256.8c0 8.6-7 15.6-15.6 15.6s-15.6-7-15.6-15.6 7-15.6 15.6-15.6 15.6 7 15.6 15.6"/><path class="st0" d="M749.4 256.8c0 8.6-7 15.6-15.6 15.6s-15.6-7-15.6-15.6 7-15.6 15.6-15.6 15.6 7 15.6 15.6zM733.8 261.7l-5-5.3M733.8 261.7l5-5.3M733.8 254.9v35.5"/><path class="st1" d="M509.4 256.8c0 8.6-7 15.6-15.6 15.6s-15.6-7-15.6-15.6 7-15.6 15.6-15.6 15.6 7 15.6 15.6"/><path class="st0" d="M509.4 256.8c0 8.6-7 15.6-15.6 15.6s-15.6-7-15.6-15.6 7-15.6 15.6-15.6 15.6 7 15.6 15.6zM493.9 261.7l-5-5.3M493.9 261.7l5-5.3M493.9 254.9v35.5M69.1 336.9h15.8v-11H69.1v11zM69.1 318.9h15.8v-6.5H69.1v6.5zM94.1 336.9h15.8v-11H94.1v11zM94.1 318.9h15.8v-6.5H94.1v6.5zM119.1 336.9h15.8v-11h-15.8v11zM119.1 318.9h15.8v-6.5h-15.8v6.5zM144.1 336.9h15.8v-11h-15.8v11zM144.1 318.9h15.8v-6.5h-15.8v6.5zM262.1 336.9h15.8v-11h-15.8v11zM262.1 318.9h15.8v-6.5h-15.8v6.5zM287.1 336.9h15.8v-11h-15.8v11zM287.1 318.9h15.8v-6.5h-15.8v6.5zM312.1 336.9h15.8v-11h-15.8v11zM312.1 318.9h15.8v-6.5h-15.8v6.5zM337.1 336.9h15.8v-11h-15.8v11zM337.1 318.9h15.8v-6.5h-15.8v6.5z"/><g><path class="st0" d="M362.1 336.9h15.8v-11h-15.8v11z"/></g><g><path class="st0" d="M362.1 318.9h15.8v-6.5h-15.8v6.5z"/></g></svg>