<svg width="140" height="200" viewBox="0 0 140 200" fill="none" xmlns="http://www.w3.org/2000/svg">
<path d="M70 200C70 200 0 108.7 0 70C-1.36979e-07 60.8075 1.8106 51.705 5.32843 43.2122C8.84626 34.7194 14.0024 27.0026 20.5025 20.5025C27.0026 14.0024 34.7194 8.84626 43.2122 5.32843C51.705 1.8106 60.8075 0 70 0C79.1925 0 88.2951 1.8106 96.7878 5.32843C105.281 8.84626 112.997 14.0024 119.497 20.5025C125.998 27.0026 131.154 34.7194 134.672 43.2122C138.189 51.705 140 60.8075 140 70C140 108.7 70 200 70 200ZM70 90C75.3043 90 80.3914 87.8929 84.1421 84.1421C87.8929 80.3914 90 75.3043 90 70C90 64.6957 87.8929 59.6086 84.1421 55.8579C80.3914 52.1071 75.3043 50 70 50C64.6957 50 59.6086 52.1071 55.8579 55.8579C52.1071 59.6086 50 64.6957 50 70C50 75.3043 52.1071 80.3914 55.8579 84.1421C59.6086 87.8929 64.6957 90 70 90Z" fill="white"/>
</svg>
