<svg width="28" height="36" viewBox="0 0 28 36" fill="none" xmlns="http://www.w3.org/2000/svg">
<path d="M11.8962 35.1911C8.20647 30.6653 0 19.6963 0 13.535C0 6.05974 6.07604 0 13.5714 0C21.064 0 27.1429 6.05974 27.1429 13.535C27.1429 19.6963 18.8728 30.6653 15.2467 35.1911C14.3772 36.2696 12.7656 36.2696 11.8962 35.1911ZM13.5714 18.0467C16.0666 18.0467 18.0952 16.0235 18.0952 13.535C18.0952 11.0466 16.0666 9.02335 13.5714 9.02335C11.0763 9.02335 9.04762 11.0466 9.04762 13.535C9.04762 16.0235 11.0763 18.0467 13.5714 18.0467Z" fill="white"/>
</svg>
