<svg width="50" height="50" viewBox="0 0 50 50" fill="none" xmlns="http://www.w3.org/2000/svg">
<path d="M31.8605 5.89147C29.2636 7.51938 27.7132 11.938 28.6822 14.8837C28.9147 15.6589 29.7287 17.093 30.4651 18.062L31.7829 19.7674V30.814V41.8605L33.062 43.2558C34.6124 44.9225 36.7829 45.3876 38.8372 44.4186C41.3953 43.1783 41.4729 42.8295 41.4729 30.6202V19.6899L42.6744 18.2946C44.5349 16.2016 45.0775 14.5349 44.845 11.8605C44.6124 9.22481 43.217 6.89923 41.1628 5.69768L39.9225 4.96124V9.49613C39.9225 13.7597 39.8837 14.031 38.9535 14.9225C37.2093 16.7054 34.0698 15.8527 33.5271 13.4496C33.4108 12.9845 33.2946 10.8915 33.217 8.83721L33.1395 5.07752L31.8605 5.89147Z" fill="white"/>
<path d="M19.3023 8.52713C11.5504 8.79845 12.093 8.33334 8.25581 17.7132C8.10077 18.1008 10.0388 18.2171 17.1705 18.2171H26.3178L25.6977 16.4341C25.2713 15.1163 25.155 13.7597 25.3101 11.3954C25.3876 9.61241 25.4651 8.1783 25.4264 8.21706C25.4264 8.25582 22.6357 8.3721 19.3023 8.52713Z" fill="white"/>
<path d="M7.48062 22.4806C5.31008 23.7985 5.03876 24.8062 5.03876 31.938V38.3333L6.70542 38.4496L8.33333 38.5659L8.44961 41.4729C8.52713 43.1783 8.75969 44.4961 9.03101 44.6512C9.30232 44.8062 10.5814 44.9612 11.8992 44.9612C14.845 44.9612 15.1163 44.6124 15.1163 40.9302V38.3721H21.7054H28.2946V35.0775V31.7829H22.4806H16.6667V30.0388V28.2946H22.4806H28.2946V25V21.7054H18.5271C9.49612 21.7054 8.64341 21.7829 7.48062 22.4806ZM12.8295 28.2946C14.3023 29.1085 13.4109 32.1705 11.7442 32.1705C10.0388 32.1705 9.06977 29.7287 10.3101 28.5271C11.0077 27.7907 11.7829 27.7519 12.8295 28.2946Z" fill="white"/>
</svg>
