<svg width="22" height="20" viewBox="0 0 22 20" fill="none" xmlns="http://www.w3.org/2000/svg">
<path d="M10.5332 0C4.72517 0 0 4.72517 0 10.5332C0 14.4524 2.15533 18.0239 5.6248 19.8542L5.90121 20H15.1653L15.4417 19.8542C18.9113 18.0239 21.0665 14.4523 21.0665 10.5332C21.0665 4.72517 16.3413 0 10.5332 0ZM14.5283 17.476H12.5772L12.1405 14.3508C12.4297 14.299 12.723 14.2341 13.0225 14.154C13.1759 14.113 13.3029 14.0052 13.3683 13.8604C14.3457 11.697 14.734 9.67832 14.5903 7.50768C14.5754 7.28372 14.4212 7.09344 14.2052 7.03265C12.9487 6.67937 11.7476 6.5075 10.5333 6.5075C9.31902 6.5075 8.11799 6.6793 6.8615 7.03265C6.64546 7.09344 6.49125 7.28365 6.47631 7.50768C6.33267 9.67832 6.72095 11.697 7.69831 13.8604C7.76375 14.0053 7.8908 14.1131 8.04436 14.154C8.3438 14.2341 8.63691 14.299 8.92602 14.3507L8.48937 17.476H6.53831C4.80765 16.4793 3.54069 14.8985 2.93104 13.0576C3.98798 12.9065 5.04561 12.7869 6.10365 12.6988C5.70008 11.4918 5.47073 10.3057 5.40667 9.09262C4.35685 9.33355 3.36245 9.70435 2.52881 10.2738C2.66626 5.97715 6.20386 2.52396 10.5333 2.52396C14.8633 2.52396 18.4013 5.9778 18.5381 10.2751C18.4554 10.2183 18.3677 10.1629 18.2744 10.1092C17.4784 9.65078 16.5875 9.33472 15.6589 9.11696C15.5931 10.3211 15.3642 11.4991 14.9635 12.6977C16.0216 12.7855 17.0795 12.9048 18.1365 13.0556C17.5269 14.8975 16.2596 16.479 14.5283 17.476Z" fill="white"/>
</svg>
