<svg width="19" height="20" viewBox="0 0 19 20" fill="none" xmlns="http://www.w3.org/2000/svg">
<path d="M17.2298 7.19775L4.53821 6.01418C4.46859 6.00599 4.40306 6.00599 4.33754 6.01009L3.82971 3.55286C3.81742 3.50371 3.80514 3.45457 3.78466 3.41362C3.70685 3.21704 3.54303 3.05732 3.32598 2.99179L0.905607 2.2792C0.532928 2.16862 0.139771 2.38158 0.0291959 2.75836C-0.0813794 3.13104 0.13158 3.52419 0.508356 3.63477L2.52738 4.2286L4.95594 15.9332C5.00099 16.2772 5.29586 16.5434 5.65625 16.5434L16.0995 16.5393C16.4885 16.5393 16.8039 16.224 16.8039 15.8349C16.8039 15.4458 16.4885 15.1305 16.0995 15.1305L6.2337 15.1346L5.89788 13.5169H16.2838C16.8285 13.5169 17.2994 13.1565 17.3977 12.661L18.2373 8.43046C18.3478 7.82434 17.8892 7.25918 17.2298 7.19775Z" fill="white"/>
<path d="M7.66272 19.9998C8.44078 19.9998 9.07153 19.369 9.07153 18.5909C9.07153 17.8129 8.44078 17.1821 7.66272 17.1821C6.88465 17.1821 6.25391 17.8129 6.25391 18.5909C6.25391 19.369 6.88465 19.9998 7.66272 19.9998Z" fill="white"/>
<path d="M14.3961 19.9998C15.1742 19.9998 15.8049 19.369 15.8049 18.5909C15.8049 17.8129 15.1742 17.1821 14.3961 17.1821C13.6181 17.1821 12.9873 17.8129 12.9873 18.5909C12.9873 19.369 13.6181 19.9998 14.3961 19.9998Z" fill="white"/>
<path d="M6.45519 5.46958L6.61491 5.48596L7.11455 5.53101L9.17043 5.72349L9.24414 4.93308C9.34653 3.86419 10.2926 3.08197 11.3615 3.18026C12.4304 3.28264 13.2126 4.22868 13.1143 5.29757L13.0406 6.08798L15.0964 6.28046L15.7517 6.34189C15.9933 6.36647 16.2104 6.18627 16.2309 5.94464L16.2964 5.24024C16.321 4.99861 16.1408 4.78155 15.8991 4.76108L15.2439 4.69965C15.1906 4.15496 15.0268 3.63894 14.7729 3.17616L15.2807 2.75434C15.4691 2.59871 15.4937 2.32023 15.3381 2.13184L14.8876 1.58716C14.732 1.39877 14.4535 1.3742 14.2651 1.52982L13.7532 1.94755C13.3436 1.61582 12.8686 1.35781 12.3443 1.20219L12.4058 0.546929C12.4304 0.305302 12.2502 0.0882465 12.0085 0.0677696L11.3041 0.00224349C11.0625 -0.0223288 10.8454 0.157868 10.825 0.399495L10.7635 1.05476C10.2188 1.108 9.70283 1.27181 9.24005 1.52573L8.81822 1.0179C8.6626 0.82951 8.38411 0.804938 8.19573 0.960563L7.65104 1.41105C7.46265 1.56668 7.43808 1.84517 7.59371 2.03355L8.01553 2.54138C7.6838 2.95092 7.42579 3.42598 7.27017 3.95019L6.61491 3.88876C6.37328 3.86419 6.15623 4.04438 6.13575 4.28601L6.07022 4.99042C6.03337 5.23205 6.21356 5.445 6.45519 5.46958Z" fill="white"/>
</svg>
