<svg width="17" height="20" viewBox="0 0 17 20" fill="none" xmlns="http://www.w3.org/2000/svg">
<path d="M3.83859 17.4501V18.7251C3.83859 19.4379 3.26279 20 2.56366 20C1.86453 20 1.28874 19.4379 1.28874 18.7251V17.4501H0V13.2825C0 12.364 0.616907 11.61 1.45318 11.377L2.94747 7.82622C3.16684 7.30527 3.67406 6.93511 4.27724 6.93511H11.9133C12.5165 6.93511 13.0238 7.30527 13.2431 7.82622L14.7237 11.377C15.56 11.61 16.1769 12.364 16.1769 13.2825V17.4501H14.8745V18.7251C14.8745 19.4379 14.2987 20 13.5996 20C12.8867 20 12.3247 19.4379 12.3247 18.7251V17.4501H3.83859ZM2.64588 15.1607C3.35874 15.1607 3.93454 14.5849 3.93454 13.872C3.93454 13.1592 3.35874 12.5834 2.64588 12.5834C1.93302 12.5834 1.35723 13.1592 1.35723 13.872C1.35723 14.5849 1.93294 15.1607 2.64588 15.1607ZM14.7374 13.872C14.7374 13.1592 14.1616 12.5834 13.4488 12.5834C12.7359 12.5834 12.1601 13.1592 12.1601 13.872C12.1601 14.5849 12.7359 15.1607 13.4488 15.1607C14.1616 15.1607 14.7374 14.5849 14.7374 13.872ZM13.4488 11.3084L12.1739 8.23749C12.119 8.0867 11.9682 7.97702 11.79 7.97702H4.38692C4.2224 7.97702 4.0716 8.0867 4.01676 8.23749L2.74184 11.3084H13.4488ZM2.52231 3.54605H9.98179C10.0261 3.54605 10.0696 3.54311 10.1126 3.53795C10.5139 4.33994 11.3425 4.89089 12.3003 4.89089C13.3353 4.89089 14.2195 4.24756 14.5765 3.33922H12.3003V1.55167H14.5765C14.2196 0.643336 13.3355 0 12.3004 0C11.3426 0 10.5139 0.550955 10.1127 1.35294C10.0697 1.34778 10.0261 1.34485 9.98186 1.34485H2.52231C1.91699 1.34485 1.42175 1.84009 1.42175 2.44541C1.42175 3.05073 1.91699 3.54605 2.52231 3.54605Z" fill="white"/>
</svg>
