<svg version="1.1" id="Layer_1" xmlns="http://www.w3.org/2000/svg" xmlns:xlink="http://www.w3.org/1999/xlink" x="0" y="0" viewBox="0 0 1179.3 102.7" xml:space="preserve"><style>.st0{fill:none;stroke:#fff;stroke-width:1.31;stroke-miterlimit:20}</style><path class="st0" d="M386.8 87.2H5.8V11.8c0-6.1 5-11 11.1-11h358.8c6.1 0 11.1 4.9 11.1 11v75.4zM5.8 11.6h381M5.9 80.8h381M7.5 5.9h377.8"/><path class="st0" d="M53.9 50.1h-31c-2.5 0-4.5-2-4.5-4.4V29c0-2.5 2-4.4 4.5-4.4h30.9c2.5 0 4.5 2 4.5 4.4v16.7c0 2.4-2 4.4-4.4 4.4zM101.7 50.1H70.8c-2.5 0-4.5-2-4.5-4.4V29c0-2.5 2-4.4 4.5-4.4h30.9c2.5 0 4.5 2 4.5 4.4v16.7c0 2.4-2 4.4-4.5 4.4zM150 50.1h-30.9c-2.5 0-4.5-2-4.5-4.4V29c0-2.5 2-4.4 4.5-4.4H150c2.5 0 4.5 2 4.5 4.4v16.7c0 2.4-2 4.4-4.5 4.4zM255 61h100.5M277 67.8h56.5M36.2 61h100.5M58.2 67.8h56.5M272.6 50.1h-30.9c-2.5 0-4.5-2-4.5-4.4V29c0-2.5 2-4.4 4.5-4.4h30.9c2.5 0 4.5 2 4.5 4.4v16.7c0 2.4-2 4.4-4.5 4.4zM320.4 50.1h-30.9c-2.5 0-4.5-2-4.5-4.4V29c0-2.5 2-4.4 4.5-4.4h30.9c2.5 0 4.5 2 4.5 4.4v16.7c0 2.4-2 4.4-4.5 4.4zM368.8 50.1h-30.9c-2.5 0-4.5-2-4.5-4.4V29c0-2.5 2-4.4 4.5-4.4h30.9c2.5 0 4.5 2 4.5 4.4v16.7c0 2.4-2 4.4-4.5 4.4zM202.6 48.2V32.1c0-2.5 2-4.4 4.5-4.4h6.7c2.5 0 4.5 2 4.5 4.4v16.1c0 2.5-2 4.4-4.5 4.4h-6.7c-2.5.1-4.5-1.9-4.5-4.4zM174.4 48.2V32.1c0-2.5 2-4.4 4.5-4.4h6.7c2.5 0 4.5 2 4.5 4.4v16.1c0 2.5-2 4.4-4.5 4.4h-6.7c-2.5.1-4.5-1.9-4.5-4.4z"/><defs><path id="SVGID_1_" d="M0 .2h392.7v102.6H0z"/></defs><clipPath id="SVGID_2_"><use xlink:href="#SVGID_1_" overflow="visible"/></clipPath><g clip-path="url(#SVGID_2_)"><path class="st0" d="M167.8 87h57V11.6h-57V87z"/></g><defs><path id="SVGID_3_" d="M0 .2h392.7v102.6H0z"/></defs><clipPath id="SVGID_4_"><use xlink:href="#SVGID_3_" overflow="visible"/></clipPath><g clip-path="url(#SVGID_4_)"><path class="st0" d="M196 13.7V87"/></g><defs><path id="SVGID_5_" d="M0 .2h392.7v102.6H0z"/></defs><clipPath id="SVGID_6_"><use xlink:href="#SVGID_5_" overflow="visible"/></clipPath><g clip-path="url(#SVGID_6_)"><path class="st0" d="M172.8 92.2h46.6v-4.7h-46.6v4.7z"/></g><defs><path id="SVGID_7_" d="M0 .2h392.7v102.6H0z"/></defs><clipPath id="SVGID_8_"><use xlink:href="#SVGID_7_" overflow="visible"/></clipPath><g clip-path="url(#SVGID_8_)"><path class="st0" d="M367.5 87.5c0 8-6.6 14.6-14.7 14.6s-14.7-6.5-14.7-14.6"/></g><defs><path id="SVGID_9_" d="M0 .2h392.7v102.6H0z"/></defs><clipPath id="SVGID_10_"><use xlink:href="#SVGID_9_" overflow="visible"/></clipPath><g clip-path="url(#SVGID_10_)"><path class="st0" d="M362.2 87.5c0 5.2-4.2 9.3-9.4 9.3s-9.4-4.2-9.4-9.3"/></g><defs><path id="SVGID_11_" d="M0 .2h392.7v102.6H0z"/></defs><clipPath id="SVGID_12_"><use xlink:href="#SVGID_11_" overflow="visible"/></clipPath><g clip-path="url(#SVGID_12_)"><path class="st0" d="M306.8 87.5c0 8-6.6 14.6-14.7 14.6s-14.7-6.5-14.7-14.6"/></g><defs><path id="SVGID_13_" d="M0 .2h392.7v102.6H0z"/></defs><clipPath id="SVGID_14_"><use xlink:href="#SVGID_13_" overflow="visible"/></clipPath><g clip-path="url(#SVGID_14_)"><path class="st0" d="M301.5 87.5c0 5.2-4.2 9.3-9.4 9.3s-9.4-4.2-9.4-9.3"/></g><g><defs><path id="SVGID_15_" d="M0 .2h392.7v102.6H0z"/></defs><clipPath id="SVGID_16_"><use xlink:href="#SVGID_15_" overflow="visible"/></clipPath><g clip-path="url(#SVGID_16_)"><path class="st0" d="M331.9 92.7H313c-.8 0-1.5-.7-1.5-1.5V87h22v4.2c0 .8-.7 1.5-1.6 1.5z"/></g></g><g><defs><path id="SVGID_17_" d="M0 .2h392.7v102.6H0z"/></defs><clipPath id="SVGID_18_"><use xlink:href="#SVGID_17_" overflow="visible"/></clipPath><g clip-path="url(#SVGID_18_)"><path class="st0" d="M113.2 87.5c0 8-6.6 14.6-14.7 14.6s-14.7-6.5-14.7-14.6"/></g></g><g><defs><path id="SVGID_19_" d="M0 .2h392.7v102.6H0z"/></defs><clipPath id="SVGID_20_"><use xlink:href="#SVGID_19_" overflow="visible"/></clipPath><g clip-path="url(#SVGID_20_)"><path class="st0" d="M107.9 87.5c0 5.2-4.2 9.3-9.4 9.3s-9.4-4.2-9.4-9.3"/></g></g><g><defs><path id="SVGID_21_" d="M0 .2h392.7v102.6H0z"/></defs><clipPath id="SVGID_22_"><use xlink:href="#SVGID_21_" overflow="visible"/></clipPath><g clip-path="url(#SVGID_22_)"><path class="st0" d="M52.5 87.5c0 8-6.6 14.6-14.7 14.6s-14.7-6.5-14.7-14.6"/></g></g><g><defs><path id="SVGID_23_" d="M0 .2h392.7v102.6H0z"/></defs><clipPath id="SVGID_24_"><use xlink:href="#SVGID_23_" overflow="visible"/></clipPath><g clip-path="url(#SVGID_24_)"><path class="st0" d="M47.2 87.5c0 5.2-4.2 9.3-9.4 9.3s-9.4-4.2-9.4-9.3"/></g></g><g><defs><path id="SVGID_25_" d="M0 .2h392.7v102.6H0z"/></defs><clipPath id="SVGID_26_"><use xlink:href="#SVGID_25_" overflow="visible"/></clipPath><g clip-path="url(#SVGID_26_)"><path class="st0" d="M77.6 92.7H58.7c-.8 0-1.5-.7-1.5-1.5V87h22v4.2c0 .8-.7 1.5-1.6 1.5z"/></g></g><g><defs><path id="SVGID_27_" d="M0 .2h392.7v102.6H0z"/></defs><clipPath id="SVGID_28_"><use xlink:href="#SVGID_27_" overflow="visible"/></clipPath><g clip-path="url(#SVGID_28_)"><path class="st0" d="M386.9 80.8h5.2V11.6h-5.2v69.2z"/></g></g><g><defs><path id="SVGID_29_" d="M0 .2h392.7v102.6H0z"/></defs><clipPath id="SVGID_30_"><use xlink:href="#SVGID_29_" overflow="visible"/></clipPath><g clip-path="url(#SVGID_30_)"><path class="st0" d="M.7 80.8h5.2V11.6H.7v69.2z"/></g></g><g><defs><path id="SVGID_31_" d="M0 .2h392.7v102.6H0z"/></defs><clipPath id="SVGID_32_"><use xlink:href="#SVGID_31_" overflow="visible"/></clipPath><g clip-path="url(#SVGID_32_)"><path class="st0" d="M333.5 32.4h39.8"/></g></g><g><defs><path id="SVGID_33_" d="M0 .2h392.7v102.6H0z"/></defs><clipPath id="SVGID_34_"><use xlink:href="#SVGID_33_" overflow="visible"/></clipPath><g clip-path="url(#SVGID_34_)"><path class="st0" d="M285.3 32.4h39.8"/></g></g><g><defs><path id="SVGID_35_" d="M0 .2h392.7v102.6H0z"/></defs><clipPath id="SVGID_36_"><use xlink:href="#SVGID_35_" overflow="visible"/></clipPath><g clip-path="url(#SVGID_36_)"><path class="st0" d="M237.2 32.4H277"/></g></g><g><defs><path id="SVGID_37_" d="M0 .2h392.7v102.6H0z"/></defs><clipPath id="SVGID_38_"><use xlink:href="#SVGID_37_" overflow="visible"/></clipPath><g clip-path="url(#SVGID_38_)"><path class="st0" d="M114.7 32.4h39.8"/></g></g><g><defs><path id="SVGID_39_" d="M0 .2h392.7v102.6H0z"/></defs><clipPath id="SVGID_40_"><use xlink:href="#SVGID_39_" overflow="visible"/></clipPath><g clip-path="url(#SVGID_40_)"><path class="st0" d="M66.6 32.4h39.8"/></g></g><g><defs><path id="SVGID_41_" d="M0 .2h392.7v102.6H0z"/></defs><clipPath id="SVGID_42_"><use xlink:href="#SVGID_41_" overflow="visible"/></clipPath><g clip-path="url(#SVGID_42_)"><path class="st0" d="M18.5 32.4h39.8"/></g></g><g><path class="st0" d="M779.8 87.2h-381V11.8c0-6.1 5-11 11.1-11h358.8c6.1 0 11.1 4.9 11.1 11v75.4zM398.8 11.6h381M398.9 80.8h381M400.5 5.9h377.8"/><path class="st0" d="M446.9 50.1H416c-2.5 0-4.5-2-4.5-4.4V29c0-2.5 2-4.4 4.5-4.4h30.9c2.5 0 4.5 2 4.5 4.4v16.7c-.1 2.4-2.1 4.4-4.5 4.4zM494.7 50.1h-30.9c-2.5 0-4.5-2-4.5-4.4V29c0-2.5 2-4.4 4.5-4.4h30.9c2.5 0 4.5 2 4.5 4.4v16.7c0 2.4-2 4.4-4.5 4.4zM543 50.1h-30.9c-2.5 0-4.5-2-4.5-4.4V29c0-2.5 2-4.4 4.5-4.4H543c2.5 0 4.5 2 4.5 4.4v16.7c0 2.4-2 4.4-4.5 4.4zM648 61h100.5M670 67.8h56.5M429.2 61h100.5M451.2 67.8h56.5M665.6 50.1h-30.9c-2.5 0-4.5-2-4.5-4.4V29c0-2.5 2-4.4 4.5-4.4h30.9c2.5 0 4.5 2 4.5 4.4v16.7c0 2.4-2 4.4-4.5 4.4zM713.4 50.1h-30.9c-2.5 0-4.5-2-4.5-4.4V29c0-2.5 2-4.4 4.5-4.4h30.9c2.5 0 4.5 2 4.5 4.4v16.7c0 2.4-2 4.4-4.5 4.4zM761.8 50.1h-30.9c-2.5 0-4.5-2-4.5-4.4V29c0-2.5 2-4.4 4.5-4.4h30.9c2.5 0 4.5 2 4.5 4.4v16.7c0 2.4-2 4.4-4.5 4.4zM595.6 48.2V32.1c0-2.5 2-4.4 4.5-4.4h6.7c2.5 0 4.5 2 4.5 4.4v16.1c0 2.5-2 4.4-4.5 4.4h-6.7c-2.5.1-4.5-1.9-4.5-4.4zM567.4 48.2V32.1c0-2.5 2-4.4 4.5-4.4h6.7c2.5 0 4.5 2 4.5 4.4v16.1c0 2.5-2 4.4-4.5 4.4h-6.7c-2.5.1-4.5-1.9-4.5-4.4z"/><defs><path id="SVGID_43_" d="M393 .2h392.7v102.6H393z"/></defs><clipPath id="SVGID_44_"><use xlink:href="#SVGID_43_" overflow="visible"/></clipPath><g clip-path="url(#SVGID_44_)"><path class="st0" d="M560.8 87h57V11.6h-57V87z"/></g><defs><path id="SVGID_45_" d="M393 .2h392.7v102.6H393z"/></defs><clipPath id="SVGID_46_"><use xlink:href="#SVGID_45_" overflow="visible"/></clipPath><g clip-path="url(#SVGID_46_)"><path class="st0" d="M589 13.7V87"/></g><defs><path id="SVGID_47_" d="M393 .2h392.7v102.6H393z"/></defs><clipPath id="SVGID_48_"><use xlink:href="#SVGID_47_" overflow="visible"/></clipPath><g clip-path="url(#SVGID_48_)"><path class="st0" d="M565.8 92.2h46.6v-4.7h-46.6v4.7z"/></g><defs><path id="SVGID_49_" d="M393 .2h392.7v102.6H393z"/></defs><clipPath id="SVGID_50_"><use xlink:href="#SVGID_49_" overflow="visible"/></clipPath><g clip-path="url(#SVGID_50_)"><path class="st0" d="M760.5 87.5c0 8-6.6 14.6-14.7 14.6s-14.7-6.5-14.7-14.6"/></g><defs><path id="SVGID_51_" d="M393 .2h392.7v102.6H393z"/></defs><clipPath id="SVGID_52_"><use xlink:href="#SVGID_51_" overflow="visible"/></clipPath><g clip-path="url(#SVGID_52_)"><path class="st0" d="M755.2 87.5c0 5.2-4.2 9.3-9.4 9.3s-9.4-4.2-9.4-9.3"/></g><defs><path id="SVGID_53_" d="M393 .2h392.7v102.6H393z"/></defs><clipPath id="SVGID_54_"><use xlink:href="#SVGID_53_" overflow="visible"/></clipPath><g clip-path="url(#SVGID_54_)"><path class="st0" d="M699.8 87.5c0 8-6.6 14.6-14.7 14.6s-14.7-6.5-14.7-14.6"/></g><defs><path id="SVGID_55_" d="M393 .2h392.7v102.6H393z"/></defs><clipPath id="SVGID_56_"><use xlink:href="#SVGID_55_" overflow="visible"/></clipPath><g clip-path="url(#SVGID_56_)"><path class="st0" d="M694.5 87.5c0 5.2-4.2 9.3-9.4 9.3s-9.4-4.2-9.4-9.3"/></g><g><defs><path id="SVGID_57_" d="M393 .2h392.7v102.6H393z"/></defs><clipPath id="SVGID_58_"><use xlink:href="#SVGID_57_" overflow="visible"/></clipPath><g clip-path="url(#SVGID_58_)"><path class="st0" d="M724.9 92.7H706c-.8 0-1.5-.7-1.5-1.5V87h22v4.2c0 .8-.7 1.5-1.6 1.5z"/></g></g><g><defs><path id="SVGID_59_" d="M393 .2h392.7v102.6H393z"/></defs><clipPath id="SVGID_60_"><use xlink:href="#SVGID_59_" overflow="visible"/></clipPath><g clip-path="url(#SVGID_60_)"><path class="st0" d="M506.2 87.5c0 8-6.6 14.6-14.7 14.6s-14.7-6.5-14.7-14.6"/></g></g><g><defs><path id="SVGID_61_" d="M393 .2h392.7v102.6H393z"/></defs><clipPath id="SVGID_62_"><use xlink:href="#SVGID_61_" overflow="visible"/></clipPath><g clip-path="url(#SVGID_62_)"><path class="st0" d="M500.9 87.5c0 5.2-4.2 9.3-9.4 9.3s-9.4-4.2-9.4-9.3"/></g></g><g><defs><path id="SVGID_63_" d="M393 .2h392.7v102.6H393z"/></defs><clipPath id="SVGID_64_"><use xlink:href="#SVGID_63_" overflow="visible"/></clipPath><g clip-path="url(#SVGID_64_)"><path class="st0" d="M445.5 87.5c0 8-6.6 14.6-14.7 14.6s-14.7-6.5-14.7-14.6"/></g></g><g><defs><path id="SVGID_65_" d="M393 .2h392.7v102.6H393z"/></defs><clipPath id="SVGID_66_"><use xlink:href="#SVGID_65_" overflow="visible"/></clipPath><g clip-path="url(#SVGID_66_)"><path class="st0" d="M440.2 87.5c0 5.2-4.2 9.3-9.4 9.3s-9.4-4.2-9.4-9.3"/></g></g><g><defs><path id="SVGID_67_" d="M393 .2h392.7v102.6H393z"/></defs><clipPath id="SVGID_68_"><use xlink:href="#SVGID_67_" overflow="visible"/></clipPath><g clip-path="url(#SVGID_68_)"><path class="st0" d="M470.6 92.7h-18.9c-.8 0-1.5-.7-1.5-1.5V87h22v4.2c0 .8-.7 1.5-1.6 1.5z"/></g></g><g><defs><path id="SVGID_69_" d="M393 .2h392.7v102.6H393z"/></defs><clipPath id="SVGID_70_"><use xlink:href="#SVGID_69_" overflow="visible"/></clipPath><g clip-path="url(#SVGID_70_)"><path class="st0" d="M779.9 80.8h5.2V11.6h-5.2v69.2z"/></g></g><g><defs><path id="SVGID_71_" d="M393 .2h392.7v102.6H393z"/></defs><clipPath id="SVGID_72_"><use xlink:href="#SVGID_71_" overflow="visible"/></clipPath><g clip-path="url(#SVGID_72_)"><path class="st0" d="M393.7 80.8h5.2V11.6h-5.2v69.2z"/></g></g><g><defs><path id="SVGID_73_" d="M393 .2h392.7v102.6H393z"/></defs><clipPath id="SVGID_74_"><use xlink:href="#SVGID_73_" overflow="visible"/></clipPath><g clip-path="url(#SVGID_74_)"><path class="st0" d="M726.5 32.4h39.8"/></g></g><g><defs><path id="SVGID_75_" d="M393 .2h392.7v102.6H393z"/></defs><clipPath id="SVGID_76_"><use xlink:href="#SVGID_75_" overflow="visible"/></clipPath><g clip-path="url(#SVGID_76_)"><path class="st0" d="M678.3 32.4h39.8"/></g></g><g><defs><path id="SVGID_77_" d="M393 .2h392.7v102.6H393z"/></defs><clipPath id="SVGID_78_"><use xlink:href="#SVGID_77_" overflow="visible"/></clipPath><g clip-path="url(#SVGID_78_)"><path class="st0" d="M630.2 32.4H670"/></g></g><g><defs><path id="SVGID_79_" d="M393 .2h392.7v102.6H393z"/></defs><clipPath id="SVGID_80_"><use xlink:href="#SVGID_79_" overflow="visible"/></clipPath><g clip-path="url(#SVGID_80_)"><path class="st0" d="M507.7 32.4h39.8"/></g></g><g><defs><path id="SVGID_81_" d="M393 .2h392.7v102.6H393z"/></defs><clipPath id="SVGID_82_"><use xlink:href="#SVGID_81_" overflow="visible"/></clipPath><g clip-path="url(#SVGID_82_)"><path class="st0" d="M459.6 32.4h39.8"/></g></g><g><defs><path id="SVGID_83_" d="M393 .2h392.7v102.6H393z"/></defs><clipPath id="SVGID_84_"><use xlink:href="#SVGID_83_" overflow="visible"/></clipPath><g clip-path="url(#SVGID_84_)"><path class="st0" d="M411.5 32.4h39.8"/></g></g></g><g><path class="st0" d="M1173.3 87h-381V11.6c0-6.1 5-11 11.1-11h358.8c6.1 0 11.1 4.9 11.1 11V87zM792.3 11.4h381M792.4 80.6h381M794 5.7h377.8"/><path class="st0" d="M840.4 49.9h-30.9c-2.5 0-4.5-2-4.5-4.4V28.8c0-2.5 2-4.4 4.5-4.4h30.9c2.5 0 4.5 2 4.5 4.4v16.7c0 2.4-2 4.4-4.5 4.4zM888.2 49.9h-30.9c-2.5 0-4.5-2-4.5-4.4V28.8c0-2.5 2-4.4 4.5-4.4h30.9c2.5 0 4.5 2 4.5 4.4v16.7c0 2.4-2 4.4-4.5 4.4zM936.6 49.9h-30.9c-2.5 0-4.5-2-4.5-4.4V28.8c0-2.5 2-4.4 4.5-4.4h30.9c2.5 0 4.5 2 4.5 4.4v16.7c-.1 2.4-2.1 4.4-4.5 4.4zM1041.5 60.8H1142M1063.5 67.6h56.5M822.8 60.8h100.5M844.7 67.6h56.5M1059.1 49.9h-30.9c-2.5 0-4.5-2-4.5-4.4V28.8c0-2.5 2-4.4 4.5-4.4h30.9c2.5 0 4.5 2 4.5 4.4v16.7c0 2.4-2 4.4-4.5 4.4zM1107 49.9h-31c-2.5 0-4.5-2-4.5-4.4V28.8c0-2.5 2-4.4 4.5-4.4h30.9c2.5 0 4.5 2 4.5 4.4v16.7c0 2.4-2 4.4-4.4 4.4zM1155.3 49.9h-30.9c-2.5 0-4.5-2-4.5-4.4V28.8c0-2.5 2-4.4 4.5-4.4h30.9c2.5 0 4.5 2 4.5 4.4v16.7c0 2.4-2 4.4-4.5 4.4zM989.1 48.1V31.9c0-2.5 2-4.4 4.5-4.4h6.7c2.5 0 4.5 2 4.5 4.4V48c0 2.5-2 4.4-4.5 4.4h-6.7c-2.5.1-4.5-1.9-4.5-4.3zM960.9 48.1V31.9c0-2.5 2-4.4 4.5-4.4h6.7c2.5 0 4.5 2 4.5 4.4V48c0 2.5-2 4.4-4.5 4.4h-6.7c-2.5.1-4.5-1.9-4.5-4.3z"/><defs><path id="SVGID_85_" d="M786.5 0h392.7v102.6H786.5z"/></defs><clipPath id="SVGID_86_"><use xlink:href="#SVGID_85_" overflow="visible"/></clipPath><g clip-path="url(#SVGID_86_)"><path class="st0" d="M954.3 86.8h57V11.4h-57v75.4z"/></g><defs><path id="SVGID_87_" d="M786.5 0h392.7v102.6H786.5z"/></defs><clipPath id="SVGID_88_"><use xlink:href="#SVGID_87_" overflow="visible"/></clipPath><g clip-path="url(#SVGID_88_)"><path class="st0" d="M982.5 13.5v73.3"/></g><defs><path id="SVGID_89_" d="M786.5 0h392.7v102.6H786.5z"/></defs><clipPath id="SVGID_90_"><use xlink:href="#SVGID_89_" overflow="visible"/></clipPath><g clip-path="url(#SVGID_90_)"><path class="st0" d="M959.3 92h46.6v-4.7h-46.6V92z"/></g><defs><path id="SVGID_91_" d="M786.5 0h392.7v102.6H786.5z"/></defs><clipPath id="SVGID_92_"><use xlink:href="#SVGID_91_" overflow="visible"/></clipPath><g clip-path="url(#SVGID_92_)"><path class="st0" d="M1154 87.3c0 8-6.6 14.6-14.7 14.6s-14.7-6.5-14.7-14.6"/></g><defs><path id="SVGID_93_" d="M786.5 0h392.7v102.6H786.5z"/></defs><clipPath id="SVGID_94_"><use xlink:href="#SVGID_93_" overflow="visible"/></clipPath><g clip-path="url(#SVGID_94_)"><path class="st0" d="M1148.7 87.3c0 5.2-4.2 9.3-9.4 9.3s-9.4-4.2-9.4-9.3"/></g><defs><path id="SVGID_95_" d="M786.5 0h392.7v102.6H786.5z"/></defs><clipPath id="SVGID_96_"><use xlink:href="#SVGID_95_" overflow="visible"/></clipPath><g clip-path="url(#SVGID_96_)"><path class="st0" d="M1093.3 87.3c0 8-6.6 14.6-14.7 14.6s-14.7-6.5-14.7-14.6"/></g><defs><path id="SVGID_97_" d="M786.5 0h392.7v102.6H786.5z"/></defs><clipPath id="SVGID_98_"><use xlink:href="#SVGID_97_" overflow="visible"/></clipPath><g clip-path="url(#SVGID_98_)"><path class="st0" d="M1088 87.3c0 5.2-4.2 9.3-9.4 9.3s-9.4-4.2-9.4-9.3"/></g><g><defs><path id="SVGID_99_" d="M786.5 0h392.7v102.6H786.5z"/></defs><clipPath id="SVGID_100_"><use xlink:href="#SVGID_99_" overflow="visible"/></clipPath><g clip-path="url(#SVGID_100_)"><path class="st0" d="M1118.5 92.5h-18.9c-.8 0-1.5-.7-1.5-1.5v-4.2h22V91c-.1.9-.8 1.5-1.6 1.5z"/></g></g><g><defs><path id="SVGID_101_" d="M786.5 0h392.7v102.6H786.5z"/></defs><clipPath id="SVGID_102_"><use xlink:href="#SVGID_101_" overflow="visible"/></clipPath><g clip-path="url(#SVGID_102_)"><path class="st0" d="M899.7 87.3c0 8-6.6 14.6-14.7 14.6s-14.7-6.5-14.7-14.6"/></g></g><g><defs><path id="SVGID_103_" d="M786.5 0h392.7v102.6H786.5z"/></defs><clipPath id="SVGID_104_"><use xlink:href="#SVGID_103_" overflow="visible"/></clipPath><g clip-path="url(#SVGID_104_)"><path class="st0" d="M894.4 87.3c0 5.2-4.2 9.3-9.4 9.3s-9.4-4.2-9.4-9.3"/></g></g><g><defs><path id="SVGID_105_" d="M786.5 0h392.7v102.6H786.5z"/></defs><clipPath id="SVGID_106_"><use xlink:href="#SVGID_105_" overflow="visible"/></clipPath><g clip-path="url(#SVGID_106_)"><path class="st0" d="M839 87.3c0 8-6.6 14.6-14.7 14.6s-14.7-6.5-14.7-14.6"/></g></g><g><defs><path id="SVGID_107_" d="M786.5 0h392.7v102.6H786.5z"/></defs><clipPath id="SVGID_108_"><use xlink:href="#SVGID_107_" overflow="visible"/></clipPath><g clip-path="url(#SVGID_108_)"><path class="st0" d="M833.7 87.3c0 5.2-4.2 9.3-9.4 9.3s-9.4-4.2-9.4-9.3"/></g></g><g><defs><path id="SVGID_109_" d="M786.5 0h392.7v102.6H786.5z"/></defs><clipPath id="SVGID_110_"><use xlink:href="#SVGID_109_" overflow="visible"/></clipPath><g clip-path="url(#SVGID_110_)"><path class="st0" d="M864.1 92.5h-18.9c-.8 0-1.5-.7-1.5-1.5v-4.2h22V91c0 .9-.7 1.5-1.6 1.5z"/></g></g><g><defs><path id="SVGID_111_" d="M786.5 0h392.7v102.6H786.5z"/></defs><clipPath id="SVGID_112_"><use xlink:href="#SVGID_111_" overflow="visible"/></clipPath><g clip-path="url(#SVGID_112_)"><path class="st0" d="M1173.4 80.6h5.2V11.4h-5.2v69.2z"/></g></g><g><defs><path id="SVGID_113_" d="M786.5 0h392.7v102.6H786.5z"/></defs><clipPath id="SVGID_114_"><use xlink:href="#SVGID_113_" overflow="visible"/></clipPath><g clip-path="url(#SVGID_114_)"><path class="st0" d="M787.2 80.6h5.2V11.4h-5.2v69.2z"/></g></g><g><defs><path id="SVGID_115_" d="M786.5 0h392.7v102.6H786.5z"/></defs><clipPath id="SVGID_116_"><use xlink:href="#SVGID_115_" overflow="visible"/></clipPath><g clip-path="url(#SVGID_116_)"><path class="st0" d="M1120 32.2h39.8"/></g></g><g><defs><path id="SVGID_117_" d="M786.5 0h392.7v102.6H786.5z"/></defs><clipPath id="SVGID_118_"><use xlink:href="#SVGID_117_" overflow="visible"/></clipPath><g clip-path="url(#SVGID_118_)"><path class="st0" d="M1071.8 32.2h39.8"/></g></g><g><defs><path id="SVGID_119_" d="M786.5 0h392.7v102.6H786.5z"/></defs><clipPath id="SVGID_120_"><use xlink:href="#SVGID_119_" overflow="visible"/></clipPath><g clip-path="url(#SVGID_120_)"><path class="st0" d="M1023.7 32.2h39.8"/></g></g><g><defs><path id="SVGID_121_" d="M786.5 0h392.7v102.6H786.5z"/></defs><clipPath id="SVGID_122_"><use xlink:href="#SVGID_121_" overflow="visible"/></clipPath><g clip-path="url(#SVGID_122_)"><path class="st0" d="M901.2 32.2H941"/></g></g><g><defs><path id="SVGID_123_" d="M786.5 0h392.7v102.6H786.5z"/></defs><clipPath id="SVGID_124_"><use xlink:href="#SVGID_123_" overflow="visible"/></clipPath><g clip-path="url(#SVGID_124_)"><path class="st0" d="M853.1 32.2h39.8"/></g></g><g><defs><path id="SVGID_125_" d="M786.5 0h392.7v102.6H786.5z"/></defs><clipPath id="SVGID_126_"><use xlink:href="#SVGID_125_" overflow="visible"/></clipPath><g clip-path="url(#SVGID_126_)"><path class="st0" d="M805 32.2h39.8"/></g></g></g></svg>