<svg width="25" height="26" viewBox="0 0 25 26" fill="none" xmlns="http://www.w3.org/2000/svg">
<path d="M22.4302 7.65791C22.446 7.87998 22.446 8.1021 22.446 8.32417C22.446 15.0976 17.2906 22.9022 7.86802 22.9022C4.96509 22.9022 2.26841 22.0614 0 20.6021C0.412451 20.6497 0.808984 20.6655 1.2373 20.6655C3.63257 20.6655 5.83755 19.8565 7.59834 18.4765C5.3458 18.4289 3.45811 16.9536 2.80771 14.9231C3.125 14.9707 3.44224 15.0024 3.77539 15.0024C4.2354 15.0024 4.69546 14.939 5.12373 14.828C2.77603 14.3521 1.01519 12.2899 1.01519 9.79941V9.73599C1.69727 10.1167 2.49048 10.3546 3.33115 10.3863C1.95107 9.46626 1.04692 7.89585 1.04692 6.11919C1.04692 5.16743 1.30068 4.29497 1.74487 3.53354C4.26709 6.64268 8.05835 8.6731 12.3096 8.89521C12.2303 8.5145 12.1827 8.11797 12.1827 7.72139C12.1827 4.89775 14.4669 2.59766 17.3064 2.59766C18.7816 2.59766 20.1141 3.21631 21.05 4.21567C22.208 3.9936 23.3184 3.56528 24.302 2.97837C23.9212 4.16812 23.1122 5.16748 22.0494 5.80195C23.0805 5.69097 24.0799 5.40537 24.9999 5.00884C24.3021 6.02402 23.4295 6.92817 22.4302 7.65791V7.65791Z" fill="#5C5C5C"/>
</svg>
