<svg width="38" height="26" viewBox="0 0 38 26" fill="none" xmlns="http://www.w3.org/2000/svg">
<path d="M2.68253 5.40243H38.0001V4.42877C38.0001 3.33133 37.0289 2.43848 35.8349 2.43848H32.2126V3.90986C32.2126 4.05927 32.0812 4.18032 31.9193 4.18032H29.2713C29.1092 4.18032 28.978 4.05927 28.978 3.90986V2.43848H9.06885V3.90986C9.06885 4.05927 8.9376 4.18032 8.77559 4.18032H6.13234C5.97033 4.18032 5.83908 4.05927 5.83908 3.90986V2.43848H2.2126C1.01838 2.43848 0.046875 3.33133 0.046875 4.42877V23.2458C0.046875 24.3472 1.01838 25.2433 2.2126 25.2433H35.835C37.029 25.2433 38.0002 24.3473 38.0002 23.2458V5.94336H2.68253C2.52061 5.94336 2.38927 5.82223 2.38927 5.6729C2.38936 5.52348 2.52061 5.40243 2.68253 5.40243ZM31.9612 11.5871C34.157 11.5871 35.9433 13.2328 35.9433 15.2555C35.9433 17.2783 34.157 18.924 31.9612 18.924C29.7704 18.924 27.988 17.2783 27.988 15.2555C27.988 13.2327 29.7704 11.5871 31.9612 11.5871ZM23.3824 9.30534C23.3824 9.15593 23.5136 9.03488 23.6756 9.03488H25.6604C25.8224 9.03488 25.9536 9.15593 25.9536 9.30534V11.1395C25.9536 11.2888 25.8223 11.4099 25.6604 11.4099H23.6756C23.5135 11.4099 23.3824 11.2888 23.3824 11.1395V9.30534ZM23.3824 12.7532C23.3824 12.6039 23.5136 12.4829 23.6756 12.4829H25.6604C25.8224 12.4829 25.9536 12.604 25.9536 12.7532V14.58C25.9536 14.7294 25.8223 14.8504 25.6604 14.8504H23.6756C23.5135 14.8504 23.3824 14.7294 23.3824 14.58V12.7532ZM23.3824 16.1937C23.3824 16.0444 23.5136 15.9234 23.6756 15.9234H25.6604C25.8224 15.9234 25.9536 16.0445 25.9536 16.1937V18.0209C25.9536 18.1704 25.8223 18.2914 25.6604 18.2914H23.6756C23.5135 18.2914 23.3824 18.1703 23.3824 18.0209V16.1937ZM23.3824 19.6345C23.3824 19.4851 23.5136 19.3641 23.6756 19.3641H25.6604C25.8224 19.3641 25.9536 19.4852 25.9536 19.6345V21.4617C25.9536 21.6111 25.8223 21.7321 25.6604 21.7321H23.6756C23.5135 21.7321 23.3824 21.611 23.3824 21.4617V19.6345ZM19.5551 9.30534C19.5551 9.15593 19.6863 9.03488 19.8483 9.03488H21.8333C21.9952 9.03488 22.1264 9.15593 22.1264 9.30534V11.1395C22.1264 11.2888 21.9951 11.4099 21.8333 11.4099H19.8483C19.6862 11.4099 19.5551 11.2888 19.5551 11.1395V9.30534ZM19.5551 12.7532C19.5551 12.6039 19.6863 12.4829 19.8483 12.4829H21.8333C21.9952 12.4829 22.1264 12.604 22.1264 12.7532V14.58C22.1264 14.7294 21.9951 14.8504 21.8333 14.8504H19.8483C19.6862 14.8504 19.5551 14.7294 19.5551 14.58V12.7532ZM19.5551 16.1937C19.5551 16.0444 19.6863 15.9234 19.8483 15.9234H21.8333C21.9952 15.9234 22.1264 16.0445 22.1264 16.1937V18.0209C22.1264 18.1704 21.9951 18.2914 21.8333 18.2914H19.8483C19.6862 18.2914 19.5551 18.1703 19.5551 18.0209V16.1937ZM19.5551 19.6345C19.5551 19.4851 19.6863 19.3641 19.8483 19.3641H21.8333C21.9952 19.3641 22.1264 19.4852 22.1264 19.6345V21.4617C22.1264 21.6111 21.9951 21.7321 21.8333 21.7321H19.8483C19.6862 21.7321 19.5551 21.611 19.5551 21.4617V19.6345ZM15.732 9.30534C15.732 9.15593 15.8632 9.03488 16.0252 9.03488H18.006C18.168 9.03488 18.2992 9.15593 18.2992 9.30534V11.1395C18.2992 11.2888 18.168 11.4099 18.006 11.4099H16.0252C15.8632 11.4099 15.732 11.2888 15.732 11.1395V9.30534ZM15.732 12.7532C15.732 12.6039 15.8632 12.4829 16.0252 12.4829H18.006C18.168 12.4829 18.2992 12.604 18.2992 12.7532V14.58C18.2992 14.7294 18.168 14.8504 18.006 14.8504H16.0252C15.8632 14.8504 15.732 14.7294 15.732 14.58V12.7532ZM15.732 16.1937C15.732 16.0444 15.8632 15.9234 16.0252 15.9234H18.006C18.168 15.9234 18.2992 16.0445 18.2992 16.1937V18.0209C18.2992 18.1704 18.168 18.2914 18.006 18.2914H16.0252C15.8632 18.2914 15.732 18.1703 15.732 18.0209V16.1937ZM15.732 19.6345C15.732 19.4851 15.8632 19.3641 16.0252 19.3641H18.006C18.168 19.3641 18.2992 19.4852 18.2992 19.6345V21.4617C18.2992 21.6111 18.168 21.7321 18.006 21.7321H16.0252C15.8632 21.7321 15.732 21.611 15.732 21.4617V19.6345ZM11.9048 9.30534C11.9048 9.15593 12.036 9.03488 12.198 9.03488H14.1829C14.3448 9.03488 14.4762 9.15593 14.4762 9.30534V11.1395C14.4762 11.2888 14.3448 11.4099 14.1829 11.4099H12.198C12.036 11.4099 11.9048 11.2888 11.9048 11.1395V9.30534ZM11.9048 12.7532C11.9048 12.6039 12.036 12.4829 12.198 12.4829H14.1829C14.3448 12.4829 14.4762 12.604 14.4762 12.7532V14.58C14.4762 14.7294 14.3448 14.8504 14.1829 14.8504H12.198C12.036 14.8504 11.9048 14.7294 11.9048 14.58V12.7532ZM11.9048 16.1937C11.9048 16.0444 12.036 15.9234 12.198 15.9234H14.1829C14.3448 15.9234 14.4762 16.0445 14.4762 16.1937V18.0209C14.4762 18.1704 14.3448 18.2914 14.1829 18.2914H12.198C12.036 18.2914 11.9048 18.1703 11.9048 18.0209V16.1937ZM11.9048 19.6345C11.9048 19.4851 12.036 19.3641 12.198 19.3641H14.1829C14.3448 19.3641 14.4762 19.4852 14.4762 19.6345V21.4617C14.4762 21.6111 14.3448 21.7321 14.1829 21.7321H12.198C12.036 21.7321 11.9048 21.611 11.9048 21.4617V19.6345ZM8.07812 9.30534C8.07812 9.15593 8.20946 9.03488 8.37138 9.03488H10.3562C10.5182 9.03488 10.6495 9.15593 10.6495 9.30534V11.1395C10.6495 11.2888 10.5182 11.4099 10.3562 11.4099H8.37138C8.20946 11.4099 8.07812 11.2888 8.07812 11.1395V9.30534ZM8.07812 12.7532C8.07812 12.6039 8.20946 12.4829 8.37138 12.4829H10.3562C10.5182 12.4829 10.6495 12.604 10.6495 12.7532V14.58C10.6495 14.7294 10.5182 14.8504 10.3562 14.8504H8.37138C8.20946 14.8504 8.07812 14.7294 8.07812 14.58V12.7532ZM8.07812 16.1937C8.07812 16.0444 8.20946 15.9234 8.37138 15.9234H10.3562C10.5182 15.9234 10.6495 16.0445 10.6495 16.1937V18.0209C10.6495 18.1704 10.5182 18.2914 10.3562 18.2914H8.37138C8.20946 18.2914 8.07812 18.1703 8.07812 18.0209V16.1937ZM8.07812 19.6345C8.07812 19.4851 8.20946 19.3641 8.37138 19.3641H10.3562C10.5182 19.3641 10.6495 19.4852 10.6495 19.6345V21.4617C10.6495 21.6111 10.5182 21.7321 10.3562 21.7321H8.37138C8.20946 21.7321 8.07812 21.611 8.07812 21.4617V19.6345ZM4.25495 9.30534C4.25495 9.15593 4.38629 9.03488 4.54821 9.03488H6.53307C6.69507 9.03488 6.82632 9.15593 6.82632 9.30534V11.1395C6.82632 11.2888 6.69507 11.4099 6.53307 11.4099H4.54821C4.38629 11.4099 4.25495 11.2888 4.25495 11.1395V9.30534ZM4.25495 12.7532C4.25495 12.6039 4.38629 12.4829 4.54821 12.4829H6.53307C6.69507 12.4829 6.82632 12.604 6.82632 12.7532V14.58C6.82632 14.7294 6.69507 14.8504 6.53307 14.8504H4.54821C4.38629 14.8504 4.25495 14.7294 4.25495 14.58V12.7532ZM4.25495 16.1937C4.25495 16.0444 4.38629 15.9234 4.54821 15.9234H6.53307C6.69507 15.9234 6.82632 16.0445 6.82632 16.1937V18.0209C6.82632 18.1704 6.69507 18.2914 6.53307 18.2914H4.54821C4.38629 18.2914 4.25495 18.1703 4.25495 18.0209V16.1937ZM4.25495 19.6345C4.25495 19.4851 4.38629 19.3641 4.54821 19.3641H6.53307C6.69507 19.3641 6.82632 19.4852 6.82632 19.6345V21.4617C6.82632 21.6111 6.69507 21.7321 6.53307 21.7321H4.54821C4.38629 21.7321 4.25495 21.611 4.25495 21.4617V19.6345Z" fill="black" fill-opacity="0.5"/>
<path d="M31.6339 2.16766V0H29.5723V2.16766V3.63904H31.6339V2.16766Z" fill="black" fill-opacity="0.5"/>
<path d="M17.7185 9.5752H16.3242V10.8684H17.7185V9.5752Z" fill="black" fill-opacity="0.5"/>
<path d="M17.7185 13.0234H16.3242V14.3093H17.7185V13.0234Z" fill="black" fill-opacity="0.5"/>
<path d="M17.7185 16.4639H16.3242V17.7502H17.7185V16.4639Z" fill="black" fill-opacity="0.5"/>
<path d="M17.7185 19.9043H16.3242V21.1906H17.7185V19.9043Z" fill="black" fill-opacity="0.5"/>
<path d="M13.8965 19.9043H12.498V21.1906H13.8965V19.9043Z" fill="black" fill-opacity="0.5"/>
<path d="M13.8965 9.5752H12.498V10.8684H13.8965V9.5752Z" fill="black" fill-opacity="0.5"/>
<path d="M13.8965 16.4639H12.498V17.7502H13.8965V16.4639Z" fill="black" fill-opacity="0.5"/>
<path d="M13.8965 13.0234H12.498V14.3093H13.8965V13.0234Z" fill="black" fill-opacity="0.5"/>
<path d="M31.9678 18.383C33.8401 18.383 35.3635 16.98 35.3635 15.2554C35.3635 13.5309 33.8402 12.1279 31.9678 12.1279C30.1003 12.1279 28.5811 13.5309 28.5811 15.2554C28.5811 16.98 30.1003 18.383 31.9678 18.383ZM29.9761 14.698C30.1142 14.6198 30.2946 14.6596 30.3793 14.7869L31.1396 15.9289L34.0198 14.3066C34.1579 14.2286 34.3384 14.2689 34.423 14.3964C34.5073 14.5238 34.4637 14.6903 34.3255 14.7682L31.1957 16.5311C31.148 16.5581 31.0952 16.5708 31.0431 16.5708C30.9446 16.5708 30.8483 16.5249 30.793 16.4419L29.8796 15.07C29.7948 14.9426 29.838 14.7762 29.9761 14.698Z" fill="black" fill-opacity="0.5"/>
<path d="M25.375 19.9043H23.9766V21.1906H25.375V19.9043Z" fill="black" fill-opacity="0.5"/>
<path d="M25.375 16.4639H23.9766V17.7502H25.375V16.4639Z" fill="black" fill-opacity="0.5"/>
<path d="M8.48945 2.16766V0H6.43262V2.16766V3.63904H8.48945V2.16766Z" fill="black" fill-opacity="0.5"/>
<path d="M25.375 13.0234H23.9766V14.3093H25.375V13.0234Z" fill="black" fill-opacity="0.5"/>
<path d="M21.547 16.4639H20.1484V17.7502H21.547V16.4639Z" fill="black" fill-opacity="0.5"/>
<path d="M21.547 9.5752H20.1484V10.8684H21.547V9.5752Z" fill="black" fill-opacity="0.5"/>
<path d="M21.547 19.9043H20.1484V21.1906H21.547V19.9043Z" fill="black" fill-opacity="0.5"/>
<path d="M21.547 13.0234H20.1484V14.3093H21.547V13.0234Z" fill="black" fill-opacity="0.5"/>
<path d="M10.0684 19.9043H8.66992V21.1906H10.0684V19.9043Z" fill="black" fill-opacity="0.5"/>
<path d="M6.24804 9.5752H4.84961V10.8684H6.24804V9.5752Z" fill="black" fill-opacity="0.5"/>
<path d="M10.0684 16.4639H8.66992V17.7502H10.0684V16.4639Z" fill="black" fill-opacity="0.5"/>
<path d="M6.24804 16.4639H4.84961V17.7502H6.24804V16.4639Z" fill="black" fill-opacity="0.5"/>
<path d="M6.24804 19.9043H4.84961V21.1906H6.24804V19.9043Z" fill="black" fill-opacity="0.5"/>
<path d="M10.0684 9.5752H8.66992V10.8684H10.0684V9.5752Z" fill="black" fill-opacity="0.5"/>
<path d="M25.375 9.5752H23.9766V10.8684H25.375V9.5752Z" fill="black" fill-opacity="0.5"/>
<path d="M6.24804 13.0234H4.84961V14.3093H6.24804V13.0234Z" fill="black" fill-opacity="0.5"/>
<path d="M10.0684 13.0234H8.66992V14.3093H10.0684V13.0234Z" fill="black" fill-opacity="0.5"/>
</svg>
