<svg width="200" height="200" viewBox="0 0 200 200" fill="none" xmlns="http://www.w3.org/2000/svg">
<g clip-path="url(#clip0_1042_2)">
<path d="M157.083 47.6577H132.755V0H67.2452V47.6577H42.917L99.9999 110.207L157.083 47.6577Z" fill="white"/>
<path d="M0 127.835V200H200V127.835H0ZM136.082 170.103C132.666 170.103 129.897 167.334 129.897 163.917C129.897 160.501 132.666 157.732 136.082 157.732C139.499 157.732 142.268 160.501 142.268 163.917C142.268 167.334 139.499 170.103 136.082 170.103ZM164.948 170.103C161.532 170.103 158.763 167.334 158.763 163.917C158.763 160.501 161.532 157.732 164.948 157.732C168.365 157.732 171.134 160.501 171.134 163.917C171.134 167.334 168.365 170.103 164.948 170.103Z" fill="white"/>
</g>
<defs>
<clipPath id="clip0_1042_2">
<rect width="200" height="200" fill="white"/>
</clipPath>
</defs>
</svg>
