<svg width="23" height="22" viewBox="0 0 23 22" fill="none" xmlns="http://www.w3.org/2000/svg">
<path d="M22.1191 11.0001C22.1191 4.92512 17.1942 0.000273952 11.1191 0.000273952C5.04406 0.000273952 0.119141 4.92512 0.119141 11.0001C0.119141 16.4905 4.14173 21.0411 9.40038 21.8662V14.1798H6.60736V11.0001H9.40038V8.57675C9.40038 5.81994 11.0427 4.29706 13.5553 4.29706C14.7588 4.29706 16.0176 4.51184 16.0176 4.51184V7.21895H14.6305C13.2641 7.21895 12.8379 8.06684 12.8379 8.93672V11.0001H15.8887L15.401 14.1798H12.8379V21.8662C18.0966 21.0411 22.1191 16.4905 22.1191 11.0001" fill="#4676ED"/>
<path d="M15.4011 14.1798L15.8888 11.0001H12.838V8.93672C12.838 8.06684 13.2641 7.21895 14.6306 7.21895H16.0177V4.51184C16.0177 4.51184 14.7588 4.29706 13.5553 4.29706C11.0428 4.29706 9.40044 5.81993 9.40044 8.57674V11.0001H6.60742V14.1798H9.40044V21.8662C9.96055 21.9542 10.5345 22 11.1192 22C11.7039 22 12.2779 21.9542 12.838 21.8662V14.1798H15.4011Z" fill="white"/>
</svg>
