<svg width="35" height="35" viewBox="0 0 35 35" fill="none" xmlns="http://www.w3.org/2000/svg">
<path d="M35 17.5C35 27.1649 27.1649 35 17.5 35C7.83508 35 0 27.1649 0 17.5C0 7.83507 7.83508 1.24797e-06 17.5 1.24797e-06C27.1649 1.24797e-06 35 7.83507 35 17.5Z" fill="#4467AD"/>
<path d="M18.7934 16.0648C19.0894 15.7694 19.3331 15.4693 19.6371 15.2147C20.5717 14.4321 21.6768 14.037 22.9672 14.0468C23.6764 14.052 24.3777 14.0975 25.0613 14.2733C26.6252 14.6752 27.5341 15.632 27.9674 16.9898C28.2925 18.0081 28.3523 19.0536 28.3544 20.1022C28.3587 22.3146 28.3472 24.5266 28.3526 26.739C28.3531 26.9461 28.288 27.0004 28.0584 26.9985C26.7763 26.9893 25.4937 26.989 24.2116 26.999C23.9861 27.0006 23.9372 26.9385 23.938 26.7492C23.9452 24.6441 23.9468 22.5392 23.9393 20.4341C23.9372 19.9067 23.8996 19.3796 23.733 18.8667C23.4263 17.9219 22.6655 17.4406 21.5519 17.4928C20.0311 17.5642 19.2405 18.2334 19.0467 19.6076C19.0002 19.9359 18.9784 20.2643 18.9786 20.595C18.9808 22.6422 18.9762 24.6891 18.9847 26.7363C18.9855 26.9406 18.9282 27.0009 18.6935 26.999C17.4021 26.9888 16.1104 26.99 14.8187 26.998C14.6118 26.9995 14.5518 26.9499 14.552 26.7639C14.5579 22.7108 14.5579 18.6576 14.5518 14.6045C14.5515 14.4041 14.6254 14.3576 14.8387 14.359C16.0653 14.367 17.2921 14.368 18.5184 14.3583C18.7442 14.3566 18.8024 14.4214 18.7974 14.6114C18.7848 15.0956 18.7934 15.5803 18.7934 16.0648" fill="white"/>
<path d="M11.7671 20.697C11.7671 22.702 11.7633 24.7072 11.7724 26.7124C11.7735 26.9352 11.711 27.0025 11.4515 26.9999C10.17 26.9874 8.88789 26.9904 7.60606 26.9983C7.40079 26.9997 7.33887 26.9539 7.33887 26.7653C7.34527 22.7055 7.34473 18.6458 7.3402 14.586C7.33993 14.4181 7.38584 14.3583 7.58658 14.3592C8.88682 14.3668 10.1873 14.369 11.4876 14.358C11.7374 14.3557 11.7716 14.442 11.7711 14.6323C11.7649 16.6539 11.7671 18.6754 11.7671 20.697" fill="white"/>
<path d="M12.1206 10.335C12.1217 11.594 10.9723 12.6196 9.55912 12.6201C8.16386 12.6206 7.00455 11.594 7.00001 10.3546C6.99521 9.10175 8.15398 8.06997 9.56419 8.07116C10.9648 8.07234 12.119 9.09463 12.1206 10.335" fill="white"/>
</svg>
