<svg version="1.1" id="Layer_1" xmlns="http://www.w3.org/2000/svg" x="0" y="0" viewBox="0 0 129.2 57.5" xml:space="preserve"><style>.st0{fill:#010518}.st1{fill:#fff}</style><path class="st0" d="M127.4 22.7l-1.9-.1c-.7 0-1.3.3-1.7.9l-9.5 14.7h.5l-.8 17.6h.4c3.8.1 7.2-2.6 7.9-6.4l5.1-26.7zM21.1 53.1h.1c2.5 0 20.4.6 41.1 1.2 17.9.6 38 1.2 50.1 1.5l.8-17.1c-3.2 0-24.8 0-38.5-.4-.3 0-.5-.2-.7-.4-.1-.2-.2-.5 0-.8L90.3 1.9l-8.1-.3-35 35.5c-.2.2-.4.2-.6.2-13.5-.5-21.2-.6-25.1-.4-10.6.5-15.6 3.8-17.9 6.4-1.7 1.9-2 3.4-1.9 3.7.7 3.9 10.7 6.2 19.4 6.1zm43.2-19.4l12.2-18.2c.2-.4.7-.5 1.1-.2.4.2.5.7.2 1.1L65.6 34.6c-.2.2-.4.4-.7.4-.2 0-.3 0-.4-.1-.4-.4-.5-.9-.2-1.2zm-28 11.2l46.5 1.6c.4 0 .8.4.8.8s-.4.8-.8.8l-46.5-1.6c-.4 0-.8-.4-.8-.8 0-.5.3-.8.8-.8z"/><path class="st1" d="M129 21.4c-.1-.2-.4-.3-.6-.3l-2.8-.1c-1.2 0-2.4.6-3.1 1.6L113.2 37c-3.2 0-23.5 0-37.2-.4L92.3 1.5c.1-.2.1-.5 0-.8s-.4-.4-.7-.4L81.9 0c-.2 0-.4.1-.6.2l-35 35.6c-13.3-.5-21-.6-24.9-.4-11.7.6-17.1 4.4-19.5 7.5-1.4 1.8-2 3.6-1.8 4.4 1.1 5.5 13.5 7.4 21.1 7.3 1.9 0 20.9.6 41.1 1.2 18.9.6 40.4 1.3 52.1 1.6h.2c4.5 0 8.4-3.2 9.3-7.7l5.3-27.7c0-.2-.1-.4-.2-.6zm-14.6 34.4h-.4l.8-17.6h-.5l9.5-14.7c.4-.6 1-.9 1.7-.9l1.9.1-5.1 26.8c-.7 3.8-4.1 6.5-7.9 6.3zM3.5 43.4c2.3-2.6 7.3-5.9 17.9-6.4 3.9-.2 11.7-.1 25.1.4.2 0 .4-.1.6-.2L82.2 1.6l8.1.3L74 37.1c-.1.2-.1.5 0 .8.1.2.4.4.7.4 13.7.4 35.3.4 38.5.4l-.8 17.1c-12-.3-32.2-1-50.1-1.5-20.6-.7-38.5-1.2-41.1-1.2h-.1c-8.8.1-18.7-2.1-19.5-6 0-.3.3-1.8 1.9-3.7z"/><path class="st1" d="M36.2 46.5l46.5 1.6c.4 0 .8-.3.8-.8 0-.4-.3-.8-.8-.8l-46.5-1.6c-.4 0-.8.3-.8.8.1.4.4.8.8.8zM64.9 34.9c.3 0 .5-.1.7-.4l12.2-18.2c.2-.4.1-.9-.2-1.1-.4-.2-.9-.1-1.1.2L64.3 33.7c-.2.4-.1.9.2 1.1.1.1.3.1.4.1z"/></svg>