<svg width="158" height="200" viewBox="0 0 158 200" fill="none" xmlns="http://www.w3.org/2000/svg">
<path d="M108.714 0H0.666992V200H157.334V48.62L108.714 0ZM87.3337 76.6667H110.667C112.507 76.6667 114 78.1567 114 80C114 81.8433 112.507 83.3333 110.667 83.3333H87.3337C85.4937 83.3333 84.0003 81.8433 84.0003 80C84.0003 78.1567 85.4937 76.6667 87.3337 76.6667ZM90.667 103.333C90.667 105.177 89.1737 106.667 87.3337 106.667H54.0003C52.1603 106.667 50.667 105.177 50.667 103.333C50.667 101.49 52.1603 100 54.0003 100H87.3337C89.1737 100 90.667 101.49 90.667 103.333ZM73.0337 77.6333C73.6337 78.2633 74.0003 79.13 74.0003 80C74.0003 80.8667 73.6337 81.7333 73.0337 82.3667C72.4003 82.9667 71.5337 83.3333 70.667 83.3333C69.8003 83.3333 68.9337 82.9667 68.3003 82.3667C67.7003 81.7333 67.3337 80.8667 67.3337 80C67.3337 79.13 67.7003 78.2633 68.3003 77.6333C69.567 76.4 71.8003 76.4 73.0337 77.6333ZM37.3337 50H67.3337C69.1737 50 70.667 51.49 70.667 53.3333C70.667 55.1767 69.1737 56.6667 67.3337 56.6667H37.3337C35.4937 56.6667 34.0003 55.1767 34.0003 53.3333C34.0003 51.49 35.4937 50 37.3337 50ZM37.3337 76.6667H54.0003C55.8403 76.6667 57.3337 78.1567 57.3337 80C57.3337 81.8433 55.8403 83.3333 54.0003 83.3333H37.3337C35.4937 83.3333 34.0003 81.8433 34.0003 80C34.0003 78.1567 35.4937 76.6667 37.3337 76.6667ZM34.967 100.967C36.2003 99.7333 38.467 99.7333 39.7003 100.967C40.3003 101.597 40.667 102.463 40.667 103.333C40.667 104.2 40.3003 105.067 39.7003 105.7C39.067 106.3 38.2003 106.667 37.3337 106.667C36.467 106.667 35.6003 106.3 34.967 105.7C34.367 105.067 34.0003 104.2 34.0003 103.333C34.0003 102.43 34.367 101.597 34.967 100.967ZM39.7003 152.367C39.067 152.967 38.2337 153.333 37.3337 153.333C36.467 153.333 35.6003 152.967 34.967 152.367C34.3337 151.733 34.0003 150.9 34.0003 150C34.0003 149.097 34.367 148.233 34.967 147.633C36.2337 146.4 38.467 146.4 39.7003 147.667C40.3003 148.267 40.667 149.1 40.667 150C40.667 150.867 40.3003 151.733 39.7003 152.367ZM87.3337 153.333H54.0003C52.1603 153.333 50.667 151.843 50.667 150C50.667 148.157 52.1603 146.667 54.0003 146.667H87.3337C89.1737 146.667 90.667 148.157 90.667 150C90.667 151.843 89.1737 153.333 87.3337 153.333ZM94.0003 130H37.3337C35.4937 130 34.0003 128.51 34.0003 126.667C34.0003 124.823 35.4937 123.333 37.3337 123.333H94.0003C95.8403 123.333 97.3337 124.823 97.3337 126.667C97.3337 128.51 95.8403 130 94.0003 130ZM127.334 153.333H104C102.16 153.333 100.667 151.843 100.667 150C100.667 148.157 102.16 146.667 104 146.667H127.334C129.174 146.667 130.667 148.157 130.667 150C130.667 151.843 129.174 153.333 127.334 153.333ZM107.334 126.667C107.334 125.797 107.7 124.93 108.3 124.3C109.534 123.067 111.767 123.067 113.034 124.3C113.634 124.93 114 125.797 114 126.667C114 127.533 113.634 128.4 113.034 129.033C112.4 129.633 111.567 130 110.667 130C109.767 130 108.934 129.663 108.3 129.033C107.7 128.4 107.334 127.533 107.334 126.667ZM129.7 129.033C129.067 129.633 128.234 130 127.334 130C126.434 130 125.6 129.633 124.967 129.033C124.367 128.4 124 127.533 124 126.667C124 125.797 124.367 124.93 124.967 124.3C126.2 123.067 128.467 123.067 129.7 124.3C130.3 124.93 130.667 125.797 130.667 126.667C130.667 127.533 130.3 128.4 129.7 129.033ZM127.334 106.667H104C102.16 106.667 100.667 105.177 100.667 103.333C100.667 101.49 102.16 100 104 100H127.334C129.174 100 130.667 101.49 130.667 103.333C130.667 105.177 129.174 106.667 127.334 106.667ZM129.7 82.3667C129.067 82.9667 128.2 83.3333 127.334 83.3333C126.467 83.3333 125.6 82.9667 124.967 82.3667C124.367 81.7333 124 80.8667 124 80C124 79.13 124.367 78.2633 124.967 77.6333C126.234 76.4 128.434 76.4 129.7 77.6333C130.334 78.2633 130.667 79.13 130.667 80C130.667 80.8667 130.334 81.7333 129.7 82.3667ZM104 53.3333V6.66667L150.667 53.3333H104Z" fill="white"/>
</svg>
